<?xml version="1.0" encoding="utf-8"?>
<!-- Generator: Adobe Illustrator 13.0.0, SVG Export Plug-In . SVG Version: 6.00 Build 14948)  -->
<!DOCTYPE svg PUBLIC "-//W3C//DTD SVG 1.1//EN" "http://www.w3.org/Graphics/SVG/1.1/DTD/svg11.dtd">
<svg version="1.1" id="Layer_1" xmlns="http://www.w3.org/2000/svg" xmlns:xlink="http://www.w3.org/1999/xlink" x="0px" y="0px"
	 width="520px" height="468px" viewBox="0 0 520 468" enable-background="new 0 0 520 468" xml:space="preserve">
<rect x="-0.167" y="-0.167" fill="none" width="519.333" height="468"/>
<path fill="#5CB85C" d="M128.788,452.992c-1.077-1.528-1.513-2.952-1.51-4.141l0,0c-0.003-1.365,0.567-2.246,0.785-2.506l0,0
	l0.062-0.077l13.696-14.232c0.035-0.066,0.089-0.178,0.147-0.333l0,0c0.145-0.391,0.325-1.063,0.326-2.086l0,0
	c0-0.879-0.134-2.019-0.565-3.455l0,0c-0.408-1.356-0.577-2.632-0.575-3.788l0,0c0.011-3.357,1.37-5.591,2.045-6.499l0,0
	l5.934-19.867c-0.063-0.178-0.171-0.421-0.351-0.695l0,0c-0.458-0.675-1.324-1.607-3.471-2.3l0,0
	c-1.791-0.57-3.555-1.285-5.043-2.382l0,0c-1.463-1.058-2.79-2.773-2.782-4.975l0,0c0.032-2.369,1.366-4.521,3.738-6.806l0,0
	c3.06-2.926,6.556-6.555,9.278-9.445l0,0c2.722-2.89,4.662-5.031,4.667-5.035l0,0l0.035-0.041l0.039-0.037
	c0.464-0.457,3.13-2.741,12.069-3.859l0,0c4.207-0.525,10.27-1.668,15.241-2.676l0,0c4.074-0.826,7.418-1.561,8.503-1.799l0,0
	c0.049-0.035,0.105-0.074,0.166-0.119l0,0c0.284-0.207,0.682-0.529,1.084-0.945l0,0c0.815-0.842,1.592-2.006,1.775-3.411l0,0
	c0.178-1.321,0.587-2.44,1.394-3.296l0,0c0.802-0.865,1.954-1.204,2.791-1.184l0,0c0.666,0.019,1.206,0.146,1.622,0.293l0,0
	c0.247-0.089,0.542-0.205,0.857-0.352l0,0c0.884-0.401,1.869-1.058,2.373-1.761l0,0c0.343-0.476,0.517-0.911,0.525-1.535l0,0
	c0-0.699-0.266-1.772-1.326-3.303l0,0c-1.067-1.382-1.644-1.439-2.096-1.47l0,0c-0.42-0.011-0.99,0.217-1.48,0.562l0,0
	c-0.364,0.248-0.657,0.534-0.79,0.672l0,0c-0.448,0.696-2.229,3.373-4.903,6.113l0,0c-3.073,3.101-7.326,6.503-12.602,6.563l0,0
	c-1.754,0.005-3.582-0.424-5.329-1.363l0,0c-4.874-2.608-9.132-3.211-12.101-3.214l0,0c-2.595-0.001-4.191,0.473-4.247,0.489l0,0
	l0,0c-0.265,0.085-1.19,0.355-2.534,0.357l0,0c-1.292,0.001-2.997-0.266-4.737-1.244l0,0c-1.742-0.972-3.461-2.645-4.828-5.194l0,0
	c-1.028-1.936-1.717-2.983-2.026-3.402l0,0c-0.134-0.036-0.278-0.086-0.416-0.154l0,0c-0.98-0.531-1.227-1.087-1.674-1.801l0,0
	c-0.697-1.203-0.939-2.299-1.075-2.911l0,0c-0.156-0.661-0.152-0.549-0.168-0.58l0,0c-0.033-0.037-0.24-0.218-0.809-0.465l0,0
	c-0.688-0.316-2.424-0.713-4.15-0.969l0,0c-1.743-0.27-3.549-0.453-4.702-0.557l0,0c-0.769-0.069-1.237-0.101-1.238-0.101l0,0
	l-0.407-0.028l-0.367-0.173c-0.147-0.073-1.115-0.534-2.184-1.599l0,0c-1.061-1.05-2.234-2.791-2.469-5.186l0,0
	c-0.111-1.106-0.636-1.98-1.234-2.651l0,0c-0.59-0.662-1.228-1.058-1.28-1.086l0,0l0,0l0,0l0,0l0,0l-0.113-0.063l-14.525-10.848
	l-15.38-17.189c-0.649-0.612-3.617-3.788-3.621-9.613l0,0c-0.001-2.557,0.579-5.574,2.099-9.001l0,0
	c2.732-6.151,3.323-13.139,3.316-17.7l0,0c0.001-2.281-0.141-3.954-0.207-4.62l0,0c-0.022-0.222-0.034-0.313-0.034-0.313l0,0
	l-0.012-0.088l-0.003-0.085c-0.001-0.003-0.042-0.927-0.178-2.481l0,0c-0.134-1.555-0.36-3.713-0.724-6.098l0,0
	c-0.707-4.757-2.042-10.472-4.033-13.852l0,0c-4.167-7.171-9.918-18.728-10.91-20.729l0,0c-0.002-0.002-0.005-0.005-0.007-0.008l0,0
	c-0.153-0.156-0.379-0.385-0.667-0.668l0,0c-0.578-0.566-1.402-1.348-2.374-2.189l0,0c-1.931-1.685-4.497-3.604-6.642-4.511l0,0
	c-3.066-1.363-5.823-2.684-7.489-5.014l0,0c-0.542-0.791-0.933-1.786-0.93-2.869l0,0c-0.004-1.218,0.493-2.389,1.258-3.359l0,0
	c2.607-3.299,5.948-4.03,7.217-4.201l0,0c0.161-0.08,0.383-0.189,0.66-0.329l0,0c0.641-0.321,1.57-0.796,2.715-1.402l0,0
	c2.29-1.211,5.439-2.948,8.858-5.035l0,0c6.834-4.155,14.767-9.805,18.924-15.158l0,0c4.467-5.717,7.111-9.609,8.69-12.427l0,0
	c1.581-2.833,2.095-4.512,2.422-6.123l0,0c0.09-0.441,0.134-1.064,0.132-1.79l0,0c0.002-1.178-0.106-2.615-0.108-4.135l0,0
	c0.002-1.321,0.08-2.715,0.46-4.117l0,0c0.375-1.393,1.104-2.823,2.357-3.938l0,0c0.874-0.783,1.293-1.413,1.514-1.892l0,0
	c0.218-0.484,0.264-0.838,0.268-1.233l0,0c0.013-0.515-0.135-0.994-0.161-1.929l0,0c0.024-1.013-0.063-4.134,1.09-6.887l0,0
	c0.402-0.922,0.978-1.862,1.937-2.59l0,0c0.931-0.695,2.483-1.7,4.196-2.919l0,0c1.699-1.206,3.52-2.608,4.762-3.865l0,0
	c0.833-0.823,1.371-1.618,1.48-1.961l0,0c0.572-1.456,1.603-2.672,2.896-4.143l0,0c1.29-1.433,2.838-2.955,4.341-4.366l0,0
	c3.001-2.818,5.815-5.176,5.832-5.192l0,0l0.067-0.056l0.057-0.04c0.014-0.011,0.042-0.033,0.081-0.065l0,0
	c0.083-0.069,0.216-0.186,0.385-0.35l0,0c0.335-0.33,0.806-0.852,1.279-1.564l0,0c0.947-1.437,1.917-3.607,1.921-6.748l0,0
	c-0.001-2.188-0.478-4.872-1.866-8.128l0,0l-0.072-0.167l-0.042-0.177c-0.128-0.513-0.298-0.774-0.506-0.998l0,0
	c-0.211-0.22-0.505-0.412-0.936-0.577l0,0c-0.857-0.34-2.209-0.462-3.555-0.519l0,0c-0.908-0.051-1.792-0.068-2.722-0.26l0,0
	c-0.911-0.196-2.458-0.578-4.11-1.326l0,0c-1.644-0.754-3.45-1.874-4.733-3.736l0,0c-0.851-1.234-1.407-2.82-1.401-4.587l0,0
	c0-1.02,0.175-2.093,0.53-3.207l0,0c1.017-3.28,3.133-5.376,5.269-6.44l0,0c2.138-1.083,4.225-1.271,5.591-1.274l0,0
	c0.245,0,0.467,0.006,0.664,0.016l0,0c0.283-0.251,0.682-0.649,1.137-1.246l0,0c1.04-1.363,2.395-3.762,3.327-7.819l0,0
	c0.809-3.572,2.607-6.24,4.829-7.928l0,0c2.22-1.694,4.789-2.421,7.154-2.422l0,0c1.777,0.004,3.461,0.399,4.889,1.21l0,0
	c3.891,2.225,11.969,7.434,11.988,7.445l0,0l0.718,0.463l0.208,0.83c0,0,0.047,0.187,0.147,0.535l0,0
	c0.101,0.347,0.25,0.833,0.436,1.36l0,0c0.307,0.894,0.775,1.936,1.161,2.523l0,0c0.834-0.732,1.848-1.852,3.023-2.983l0,0
	c1.478-1.398,3.331-2.898,5.881-3.394l0,0c0.681-0.127,1.38-0.166,2.143-0.168l0,0c5.244,0.028,13.995,1.986,14.82,2.176l0,0
	c0.237,0.061,0.549,0.157,1.142,0.273l0,0c0.565,0.111,1.304,0.21,2.066,0.21l0,0c1.313,0.001,2.57-0.297,3.423-1.057l0,0
	c0.844-0.754,1.685-2.14,1.705-5.349l0,0c0-0.333-0.008-0.683-0.027-1.017l0,0c-0.016-0.223-0.024-0.448-0.024-0.676l0,0
	c-0.006-2.394,0.924-4.465,2.184-6.051l0,0c1.264-1.598,2.845-2.787,4.37-3.706l0,0c3.053-1.824,5.95-2.583,6.062-2.617l0,0
	l0.095-0.026l0.093-0.015c0.03-0.005,14.672-2.526,17.248-2.863l0,0c0.17-0.019,0.239-0.035,0.427-0.044l0,0
	c0.019-0.003,0.044-0.009,0.075-0.016l0,0c0.121-0.027,0.319-0.076,0.561-0.144l0,0c0.484-0.135,1.149-0.339,1.891-0.594l0,0
	c1.484-0.509,3.298-1.226,4.72-1.972l0,0c0.944-0.485,1.718-1.018,2.02-1.332l0,0c0.927-0.925,2.672-2.573,4.747-4.052l0,0
	c2.099-1.451,4.435-2.863,7.158-2.918l0,0c0.951-0.003,1.978,0.221,2.887,0.776l0,0c0.914,0.551,1.653,1.398,2.17,2.406l0,0
	c1.621,3.191,1.94,6.949,1.955,10.1l0,0c-0.001,3.147-0.374,5.686-0.465,6.264l0,0c-0.004,0.08-0.012,0.217-0.02,0.417l0,0
	c-0.014,0.345-0.026,0.857-0.026,1.5l0,0c-0.001,2.086,0.147,5.557,0.896,9.181l0,0c0.742,3.627,2.105,7.375,4.332,10.067l0,0
	c1.49,1.803,3.315,3.162,5.734,3.912l0,0l0.129,0.04l0.127,0.057c3.939,1.789,6.947,3.669,10.288,5.038l0,0
	c3.349,1.369,7.079,2.329,12.779,2.336l0,0c5.979,0.001,12.407,0.133,18.401,0.896l0,0c5.993,0.773,11.567,2.137,15.897,4.841l0,0
	c3.563,2.253,6.366,5.239,9.336,7.511l0,0c2.987,2.285,5.935,3.867,10.027,3.881l0,0c1.527,0,3.237-0.229,5.192-0.779l0,0
	c3.693-1.804,6.064-4.162,8.233-6.459l0,0c2.197-2.289,4.142-4.702,7.352-5.815l0,0c2.271-0.757,4.702-1.708,7.117-2.49l0,0
	c2.419-0.775,4.814-1.406,7.178-1.415l0,0c0.177,0,0.359,0.002,0.536,0.012l0,0c0.229,0.01,0.452,0.015,0.67,0.015l0,0
	c3.104-0.013,5.108-0.945,6.581-1.5l0,0c0.6-0.216,1.077-0.247,1.597-0.254l0,0c0.901,0.004,1.878,0.168,2.89,0.551l0,0
	c0.996,0.39,2.058,1.008,2.845,2.124l0,0c0.52,0.736,0.854,1.711,0.849,2.731l0,0c-0.004,1.278-0.466,2.539-1.276,3.806l0,0
	c-2.88,4.363-8.536,7.577-11.723,9.398l0,0c-1.039,0.577-1.88,1.026-2.008,1.111l0,0l-0.001-0.002
	c-0.445,0.3-0.591,0.309-0.813,0.405l0,0c-0.211,0.076-0.424,0.144-0.66,0.219l0,0c-0.467,0.147-1.023,0.317-1.604,0.521l0,0
	c-1.157,0.393-2.417,0.992-2.95,1.496l0,0c-0.373,0.355-0.339,0.444-0.342,0.453l0,0c-0.013,0.016,0.039,0.534,1.05,1.511l0,0
	c1.474,1.452,2.343,1.641,2.397,1.604l0,0c0.012-0.003,0.018-0.003,0.021-0.002l0,0c0.016,0,0.019,0.001,0.15-0.095l0,0
	c0.156-0.125,0.423-0.451,0.693-0.912l0,0c0.586-0.935,1.052-2.252,2.039-3.489l0,0c0.877-1,1.989-1.678,3.486-2.571l0,0
	c1.479-0.858,3.266-1.772,5.129-2.659l0,0c3.739-1.773,7.701-3.405,10.096-4.109l0,0c2.216-0.642,4.501-1.223,6.271-1.952l0,0
	c1.804-0.721,2.891-1.588,3.187-2.298l0,0c0.641-1.345,1.57-2.521,2.486-3.645l0,0c0.916-1.114,1.83-2.161,2.395-2.958l0,0
	c0.23-0.313,0.388-0.589,0.474-0.762l0,0c-0.051-0.078-0.14-0.189-0.335-0.459l0,0c-0.415-0.509-0.907-1.672-0.857-2.816l0,0
	c0.002-0.78,0.121-1.645,0.365-2.77l0,0c0.357-1.632,1.035-3.766,1.946-5.897l0,0c0.924-2.13,2.029-4.223,3.474-5.796l0,0
	c0.962-1.012,2.188-1.985,3.955-2.02l0,0c0.471-0.001,0.959,0.085,1.412,0.253l0,0c1.563,0.579,6.474,2.084,10.884,3.403l0,0
	c4.428,1.326,8.423,2.493,8.431,2.495l0,0l0.03,0.009l0.047,0.016c0.584,0.193,2.043,0.963,3.838,3.765l0,0
	c0.762,1.188,1.384,1.977,1.96,2.5l0,0c0.579,0.522,1.107,0.834,1.948,1.12l0,0c1.797,0.625,5.777,2.108,8.402,4.313l0,0
	c0.856,0.76,1.691,1.628,2.029,3.024l0,0l0.001,0c0,0,0,0,0.001,0.002l0,0c0.008,0.016,0.026,0.054,0.06,0.109l0,0
	c0.07,0.114,0.208,0.298,0.398,0.519l0,0c0.382,0.444,0.97,1.024,1.598,1.725l0,0c1.235,1.374,2.773,3.413,2.777,6.27l0,0
	c0.002,1.314-0.336,2.713-1.033,4.148l0,0c-1.425,2.891-2.726,6.281-2.699,8.823l0,0c0.008,1.408,0.327,2.475,1.072,3.391l0,0
	c0.752,0.913,2.081,1.803,4.513,2.395l0,0c2.893,0.701,4.915,1.701,6.305,3.046l0,0c1.399,1.333,1.993,3.069,1.971,4.513l0,0
	c-0.044,2.106-0.919,3.609-1.395,4.304l0,0c-0.244,0.826-0.889,2.669-2.297,4.597l0,0c-1.791,2.502-5.173,5.162-10.208,5.133l0,0
	c-0.893,0-1.828-0.08-2.811-0.246l0,0c-2.082-0.354-3.566-0.508-4.521-0.506l0,0c-0.766-0.004-1.156,0.106-1.244,0.147l0,0
	c-0.02,0.036-0.054,0.11-0.092,0.236l0,0c-0.269,0.724-0.382,2.869-1.552,5.391l0,0c-2.293,4.879-5.882,8.74-7.082,9.966l0,0
	c-0.074,0.258-0.17,0.63-0.27,1.104l0,0c-0.217,1.037-0.438,2.555-0.438,4.399l0,0c0,0.529,0.018,1.081,0.061,1.658l0,0
	c0.263,3.71,0.434,6.554,0.435,8.626l0,0c0,0.761-0.022,1.419-0.08,2.012l0,0c-0.017,0.098-0.016,0.659-0.035,1.336l0,0
	c-0.023,0.691-0.082,1.554-0.277,2.506l0,0c-0.375,1.892-1.384,4.216-3.658,5.962l0,0c-1.503,1.165-3.497,2.051-6.052,2.55l0,0
	c-3.373,0.654-5.173,1.227-6.045,1.706l0,0c-0.848,0.489-0.992,0.715-1.651,1.741l0,0c-0.411,0.667-0.95,1.606-1.79,2.743l0,0
	c-2.299,3.102-5.084,6.825-6.341,9.205l0,0c-0.42,0.769-0.64,1.417-0.646,1.549l0,0c-0.213,1.43-0.759,3.042-1.892,4.604l0,0
	c-1.129,1.569-2.794,3.09-5.206,4.635l0,0c-2.1,1.336-3.946,2.917-6.275,4.347l0,0c-2.322,1.428-5.148,2.623-8.895,3.007l0,0
	c-3.281,0.345-6.762,1.047-9.593,1.75l0,0c-2.803,0.688-5.087,1.437-5.61,1.678l0,0c-0.519,0.222-0.906,0.276-1.327,0.33l0,0
	c-0.415,0.046-0.845,0.063-1.31,0.064l0,0c-2.795-0.013-7.038-0.618-10.15-1.543l0,0c-1.046-0.322-1.946-0.651-2.771-1.17l0,0
	c-1.002-0.677-3.287-1.276-5.416-1.254l0,0c-1.301-0.004-2.556,0.2-3.44,0.55l0,0c-0.31,0.076-1.471,0.993-2.263,2.232l0,0
	c-0.837,1.235-1.406,2.766-1.394,3.975l0,0c0.006,0.736,0.168,1.344,0.557,1.929l0,0c0.393,0.582,1.062,1.194,2.294,1.744l0,0
	c2.812,1.255,6.28,2.356,9.575,3.681l0,0c3.29,1.34,6.464,2.861,8.712,5.375l0,0c1.494,1.665,2.484,3.891,2.468,6.421l0,0
	c0,0.231-0.008,0.454-0.021,0.688l0,0c-0.552,9.007-4.32,13.992-7.066,16.286l0,0c-0.265,0.217-0.42,0.312-0.729,0.519l0,0
	c-0.291,0.191-0.668,0.434-1.134,0.728l0,0c-0.931,0.585-2.211,1.377-3.798,2.349l0,0c-3.173,1.943-7.568,4.605-12.777,7.744l0,0
	c-10.417,6.277-24.082,14.458-37.673,22.577l0,0c-26.577,15.874-52.873,31.514-54.031,32.202l0,0
	c-0.078,0.052-0.286,0.188-0.62,0.414l0,0c-0.435,0.295-1.072,0.734-1.874,1.305l0,0c-1.605,1.14-3.872,2.807-6.492,4.895l0,0
	c-5.241,4.172-11.901,10.041-17.52,16.714l0,0c-2.784,3.353-4.251,5.843-5.173,7.706l0,0c-0.943,1.88-1.253,3.094-2.046,4.408l0,0
	c-0.724,1.084-1.641,1.785-2.654,2.63l0,0c-1.003,0.805-2.075,1.617-2.817,2.274l0,0c-0.339,0.289-0.604,0.57-0.733,0.721l0,0
	c-0.086,0.761-0.228,2.133-0.491,3.548l0,0c-0.345,1.651-0.678,3.346-1.851,4.839l0,0c-0.47,0.572-1.125,0.901-1.651,1.038l0,0
	c-0.537,0.145-0.99,0.163-1.417,0.166l0,0c-1.027-0.008-1.987-0.142-3.099-0.137l0,0c-2.359,0.036-5.262,0.424-9.152,3.994l0,0
	c-5.714,5.312-18.479,19.538-25.117,27.125l0,0c-2.207,2.519-3.792,4.375-4.109,4.781l0,0c-0.703,0.868-1.672,1.655-2.948,2.676l0,0
	c-1.258,0.99-2.747,2.088-4.181,3.118l0,0c-2.867,2.059-5.513,3.846-5.524,3.854l0,0l-0.46,0.312l-0.556,0.049
	c-0.044,0.005-0.663,0.06-1.535,0.06l0,0c-0.74-0.001-1.655-0.037-2.605-0.203l0,0c-0.682-0.135-1.4-0.296-2.12-0.69l0,0
	c-0.624,1.213-1.241,2.602-1.339,2.873l0,0c0,0,0,0.001-0.001,0.005l0,0c-0.115,0.341-1.683,5.316-3.198,10.133l0,0
	c-1.364,4.333-2.698,8.576-2.96,9.411l0,0c0,0.003,0,0.004-0.001,0.007l0,0c-0.01,0.091-0.023,0.243-0.023,0.439l0,0
	c0,0.543,0.103,1.373,0.56,2.183l0,0c0.465,0.811,1.252,1.692,3.038,2.437l0,0c1.28,0.521,2.319,1.244,3.034,2.2l0,0
	c0.723,0.948,1.032,2.092,1.023,3.096l0,0c-0.029,1.934-0.876,3.408-1.59,4.5l0,0c-0.733,1.086-1.424,1.775-1.486,1.84l0,0
	l-0.311,0.311l-0.407,0.164c-0.001,0.001-0.369,0.149-1.006,0.427l0,0c-0.638,0.277-1.529,0.676-2.531,1.156l0,0
	c-2.001,0.959-4.462,2.272-6.138,3.512l0,0c-1.126,0.791-1.828,1.672-1.819,1.785l0,0c-0.926,2.313-2.996,4.955-4.907,7.317l0,0
	c-1.903,2.317-3.613,4.164-3.631,4.184l0,0l-0.132,0.143l-0.158,0.118c-0.063,0.047-0.682,0.511-1.622,0.998l0,0
	c-0.948,0.477-2.196,1.031-3.762,1.049l0,0c-0.043,0.002-0.087,0.003-0.131,0.003l0,0
	C131.292,454.991,129.702,454.359,128.788,452.992L128.788,452.992z M132.33,450.513c0.167,0.172,0.031,0.109,0.358,0.153l0,0
	c0.318,0.013,0.972-0.17,1.536-0.447l0,0c0.48-0.228,0.904-0.496,1.115-0.64l0,0c0.172-0.188,0.484-0.533,0.895-0.996l0,0
	c0.641-0.724,1.512-1.726,2.417-2.829l0,0c1.804-2.164,3.789-4.927,4.214-6.127l0,0c0.684-1.643,1.907-2.654,3.29-3.713l0,0
	c1.394-1.024,3.013-1.967,4.575-2.792l0,0c2.391-1.263,4.643-2.242,5.583-2.638l0,0c0.004-0.006,0.01-0.012,0.015-0.017l0,0
	c0.186-0.217,0.44-0.534,0.685-0.897l0,0c0.509-0.722,0.883-1.653,0.854-2.085l0,0c-0.009-0.236-0.034-0.323-0.159-0.502l0,0
	c-0.129-0.175-0.449-0.479-1.212-0.794l0,0c-2.574-1.04-4.259-2.668-5.173-4.323l0,0c-0.923-1.652-1.111-3.241-1.111-4.296l0,0
	c0-0.773,0.1-1.281,0.123-1.395l0,0l0.023-0.106l0.029-0.094c0.006-0.018,5.934-18.88,6.227-19.759l0,0
	c0.114-0.331,0.247-0.633,0.459-1.115l0,0c0.207-0.464,0.47-1.03,0.762-1.622l0,0c0.596-1.201,1.229-2.436,1.914-3.354l0,0
	c0.219-0.272,0.401-0.531,0.866-0.866l0,0c0.256-0.162,0.641-0.422,1.375-0.438l0,0c0.494-0.015,1.111,0.21,1.487,0.551l0,0
	c0.386,0.335,0.563,0.686,0.667,0.948l0,0c0.097,0.265,0.144,0.477,0.168,0.662l0,0c0.038,0.013,0.079,0.026,0.125,0.039l0,0
	c0.563,0.177,1.582,0.259,2.347,0.252l0,0c0.232,0,0.444-0.004,0.621-0.012l0,0c0.585-0.398,1.644-1.125,2.899-2.007l0,0
	c1.921-1.348,4.297-3.057,6.061-4.447l0,0c1.156-0.895,2.112-1.774,2.219-1.942l0,0c0.494-0.629,2.016-2.399,4.261-4.964l0,0
	c2.232-2.551,5.133-5.827,8.231-9.271l0,0c6.206-6.893,13.149-14.406,17.192-18.173l0,0c4.582-4.323,9.049-5.19,12.098-5.153l0,0
	c1.371,0.003,2.484,0.138,3.054,0.138l0,0c0.232-0.516,0.553-1.516,0.713-2.514l0,0c0.259-1.393,0.389-2.797,0.486-3.586l0,0
	c0.196-1.146,0.687-1.618,1.11-2.141l0,0c0.448-0.497,0.952-0.943,1.492-1.397l0,0c1.073-0.898,2.298-1.808,3.181-2.563l0,0
	c0.582-0.482,1.015-0.963,1.02-1.001l0,0c0.287-0.397,0.788-1.888,1.826-4.016l0,0c1.06-2.145,2.745-4.969,5.734-8.563l0,0
	c11.805-14.001,27.408-24.133,27.496-24.198l0,0l0.029-0.021l0.046-0.025c0.013-0.009,4.947-2.942,12.743-7.584l0,0
	c7.796-4.643,18.441-10.983,29.834-17.781l0,0c22.785-13.595,48.571-29.022,60.538-36.323l0,0c3.406-2.077,5.733-3.526,6.408-3.988
	l0,0c0.049-0.034,0.081-0.058,0.098-0.069l0,0c1.939-1.679,4.996-5.343,5.521-13.226l0,0c0.011-0.156,0.015-0.3,0.013-0.43l0,0
	c-0.014-1.471-0.466-2.493-1.385-3.56l0,0c-0.92-1.05-2.378-2.042-4.18-2.936l0,0c-3.607-1.812-8.452-3.187-12.622-5.029l0,0
	c-1.814-0.803-3.215-1.925-4.126-3.285l0,0c-0.917-1.356-1.298-2.896-1.292-4.341l0,0c0.015-2.417,0.948-4.605,2.123-6.377l0,0
	c1.218-1.768,2.575-3.147,4.288-3.858l0,0c1.57-0.606,3.289-0.841,5.009-0.844l0,0c2.825,0.022,5.621,0.604,7.754,1.941l0,0
	c0.188,0.131,0.849,0.423,1.681,0.667l0,0c0.838,0.253,1.871,0.496,2.948,0.7l0,0c2.15,0.409,4.521,0.663,5.954,0.659l0,0
	c0.466,0.003,0.843-0.033,0.961-0.055l0,0c1.123-0.477,3.311-1.155,6.246-1.89l0,0c2.978-0.738,6.615-1.478,10.181-1.853l0,0
	c3.098-0.335,5.137-1.212,7.094-2.398l0,0c1.949-1.183,3.794-2.754,6.198-4.3l0,0c2.092-1.338,3.31-2.519,4.026-3.517l0,0
	c0.714-1.004,0.979-1.825,1.127-2.736l0,0c0.174-1.04,0.583-1.923,1.104-2.921l0,0c0.525-0.986,1.183-2.037,1.917-3.133l0,0
	c1.466-2.188,3.238-4.547,4.764-6.612l0,0c0.691-0.936,1.121-1.684,1.588-2.442l0,0c0.461-0.746,0.994-1.563,1.845-2.299l0,0
	c1.761-1.481,4.041-2.189,8.7-3.121l0,0c3.063-0.617,4.475-1.715,5.294-2.795l0,0c0.814-1.087,1.086-2.365,1.174-3.552l0,0
	c0.063-0.807,0.02-1.444,0.083-2.192l0,0c0.037-0.377,0.06-0.918,0.06-1.585l0,0c0.001-1.838-0.161-4.642-0.425-8.314l0,0
	c-0.051-0.688-0.07-1.347-0.07-1.97l0,0c0.002-4.381,1.039-7.234,1.101-7.402l0,0l0.171-0.468l0.359-0.344
	c0-0.001,0.046-0.046,0.162-0.162l0,0c0.115-0.115,0.288-0.292,0.504-0.522l0,0c0.434-0.46,1.043-1.132,1.726-1.965l0,0
	c1.368-1.664,3.027-3.976,4.171-6.434l0,0c0.467-1.001,0.688-1.884,0.868-2.758l0,0c0.191-0.874,0.285-1.74,0.732-2.773l0,0
	c0.291-0.679,0.853-1.438,1.64-1.919l0,0c1.058-0.646,2.22-0.813,3.566-0.819l0,0c1.376,0.002,3.037,0.195,5.241,0.567l0,0
	c0.761,0.128,1.455,0.185,2.09,0.185l0,0c3.407-0.028,5.264-1.522,6.601-3.207l0,0c1.273-1.643,1.782-3.473,1.815-3.623l0,0
	l-0.001,0l0.111-0.477l0.305-0.383l0.007,0.003l-0.007-0.003l0.007,0.003l-0.007-0.003c0.016-0.021,0.044-0.059,0.08-0.114l0,0
	c0.072-0.109,0.18-0.282,0.283-0.492l0,0c0.213-0.418,0.387-0.97,0.381-1.415l0,0c-0.022-0.469-0.082-0.82-0.663-1.417l0,0
	c-0.59-0.584-1.879-1.359-4.303-1.94l0,0c-3.044-0.731-5.337-2.026-6.836-3.849l0,0c-1.504-1.818-2.067-4.035-2.06-6.139l0,0
	c0.025-3.843,1.643-7.601,3.134-10.71l0,0c0.461-0.958,0.6-1.678,0.601-2.261l0,0c-0.005-0.92-0.342-1.671-0.972-2.535l0,0
	c-0.627-0.854-1.518-1.681-2.351-2.633l0,0c-0.536-0.642-1.13-1.353-1.404-2.5l0,0c-0.002-0.001-0.002-0.003-0.003-0.004l0,0
	c-0.011-0.022-0.038-0.071-0.087-0.138l0,0c-0.097-0.134-0.283-0.338-0.543-0.559l0,0c-0.517-0.448-1.313-0.964-2.184-1.434l0,0
	c-1.742-0.945-3.796-1.735-4.766-2.057l0,0c-1.32-0.433-2.505-1.112-3.501-2.031l0,0c-1.002-0.92-1.82-2.021-2.679-3.355l0,0
	c-0.889-1.38-1.507-1.896-1.704-2.039l0,0c-0.885-0.259-4.404-1.291-8.245-2.441l0,0c-4.403-1.32-9.154-2.768-11.068-3.462l0,0
	c-0.024,0.01-0.06,0.027-0.104,0.052l0,0c-0.147,0.084-0.396,0.277-0.673,0.577l0,0c-0.56,0.596-1.22,1.596-1.813,2.744l0,0
	c-1.199,2.294-2.184,5.215-2.549,6.924l0,0c-0.208,0.944-0.268,1.542-0.266,1.849l0,0c0,0.151,0.012,0.226,0.017,0.251l0,0
	c0.007,0.01,0.019,0.028,0.038,0.055l0,0c0.115,0.171,0.764,0.909,1.08,2.016l0,0c0.081,0.291,0.123,0.595,0.123,0.9l0,0
	c-0.04,1.286-0.547,2.078-1.039,2.878l0,0c-0.516,0.786-1.131,1.539-1.764,2.299l0,0c-1.257,1.492-2.578,3.078-3.029,4.081l0,0
	c-1.145,2.353-3.302,3.558-5.461,4.458l0,0c-2.193,0.893-4.59,1.482-6.699,2.101l0,0c-2.919,0.837-10.296,4.038-14.264,6.356l0,0
	c-1.307,0.731-2.313,1.519-2.336,1.601l0,0c-0.204,0.217-0.634,1.036-1.107,1.965l0,0c-0.505,0.932-1.068,2.027-2.154,2.969l0,0
	c-0.713,0.621-1.787,1.13-2.964,1.119l0,0c-1.925-0.036-3.566-1.063-5.404-2.822l0,0c-1.436-1.389-2.352-2.896-2.367-4.617l0,0
	c-0.006-1.108,0.435-2.115,1.003-2.84l0,0c0.57-0.737,1.252-1.265,1.946-1.702l0,0c1.391-0.863,2.896-1.382,4.043-1.759l0,0
	c0.62-0.198,1.18-0.371,1.387-0.442l0,0c0.227-0.147,0.393-0.229,0.672-0.388l0,0c0.338-0.186,0.763-0.417,1.261-0.691l0,0
	c0.993-0.549,2.27-1.276,3.611-2.13l0,0c2.682-1.687,5.604-3.98,6.862-5.986l0,0c0.514-0.799,0.595-1.284,0.592-1.47l0,0
	c-0.007-0.157-0.021-0.173-0.076-0.266l0,0c-0.057-0.085-0.198-0.226-0.44-0.362l0,0c-0.464-0.286-1.313-0.468-1.742-0.455l0,0
	c-0.067,0-0.122,0.003-0.154,0.007l0,0c-1.261,0.477-4.113,1.76-8.023,1.747l0,0c-0.282,0-0.569-0.006-0.875-0.019l0,0
	c-0.102-0.006-0.212-0.008-0.331-0.008l0,0c-1.544-0.009-3.609,0.476-5.848,1.207l0,0c-2.245,0.724-4.666,1.671-7.08,2.477l0,0
	c-1.652,0.507-3.312,2.238-5.573,4.678l0,0c-2.261,2.399-5.166,5.321-9.67,7.472l0,0l-0.16,0.076l-0.172,0.05
	c-2.367,0.684-4.547,1-6.569,1l0,0c-5.32,0.013-9.377-2.226-12.668-4.781l0,0c-3.308-2.568-6.055-5.444-8.995-7.274l0,0
	c-3.417-2.161-8.473-3.5-14.145-4.213l0,0c-5.671-0.724-11.943-0.862-17.854-0.861l0,0c-6.189,0.008-10.655-1.104-14.425-2.662l0,0
	c-3.731-1.543-6.735-3.421-10.309-5.043l0,0c-3.225-1.019-5.768-2.941-7.664-5.253l0,0c-1.929-2.35-3.232-5.086-4.14-7.836l0,0
	c-1.808-5.501-2.067-11.108-2.072-14.159l0,0c0-1.408,0.061-2.268,0.063-2.309l0,0l0.007-0.108l0.018-0.102
	c-0.001,0,0.022-0.129,0.062-0.409l0,0c0.039-0.281,0.093-0.695,0.146-1.21l0,0c0.107-1.03,0.216-2.467,0.216-4.043l0,0
	c0.015-2.799-0.384-6.052-1.474-8.116l0,0c-0.232-0.442-0.422-0.6-0.57-0.693l0,0c-0.151-0.089-0.319-0.146-0.645-0.149l0,0
	c-0.923-0.055-2.908,0.833-4.651,2.117l0,0c-1.769,1.255-3.389,2.774-4.196,3.585l0,0c-1.506,1.459-3.633,2.445-5.77,3.349l0,0
	c-2.132,0.874-4.162,1.519-5.307,1.802l0,0c-0.348,0.071-0.492,0.135-0.968,0.162l0,0l0,0.001c-0.002,0-0.003,0-0.005,0l0,0
	c-0.024,0.002-0.076,0.008-0.144,0.018l0,0c-0.139,0.018-0.347,0.048-0.602,0.085l0,0c-0.512,0.077-1.22,0.188-2.051,0.323l0,0
	c-1.664,0.269-3.823,0.629-5.96,0.989l0,0c-3.872,0.652-7.666,1.303-8.35,1.421l0,0c-0.031,0.009-0.073,0.021-0.127,0.038l0,0
	c-0.151,0.044-0.379,0.116-0.664,0.214l0,0c-0.571,0.195-1.373,0.498-2.254,0.908l0,0c-1.768,0.814-3.827,2.103-5.021,3.639l0,0
	c-0.803,1.033-1.25,2.085-1.255,3.374l0,0c0,0.117,0.004,0.242,0.015,0.406l0,0c0.025,0.443,0.037,0.874,0.037,1.287l0,0
	c0.021,3.967-1.182,6.867-3.182,8.602l0,0c-1.991,1.729-4.379,2.125-6.271,2.127l0,0c-1.128,0-2.126-0.142-2.89-0.289l0,0
	c-0.736-0.14-1.346-0.318-1.367-0.323l0,0c-0.438-0.125-9.519-2.073-13.771-2.046l0,0c-0.59-0.001-1.071,0.04-1.332,0.091l0,0
	c-1.233,0.225-2.442,1.066-3.712,2.28l0,0c-1.275,1.197-2.491,2.682-4.087,3.844l0,0c-0.538,0.391-1.264,0.671-2.007,0.666l0,0
	c-0.817,0.001-1.518-0.311-2.018-0.666l0,0c-0.51-0.36-0.879-0.771-1.201-1.192l0,0c-0.632-0.845-1.079-1.769-1.458-2.665l0,0
	c-0.423-1.016-0.739-1.993-0.935-2.657l0,0c-0.798-0.511-2.208-1.412-3.817-2.428l0,0c-2.486-1.567-5.457-3.412-7.285-4.456l0,0
	c-0.636-0.37-1.632-0.643-2.742-0.64l0,0c-1.485-0.001-3.133,0.465-4.528,1.533l0,0c-1.394,1.076-2.609,2.743-3.241,5.459l0,0
	c-2.078,9.194-6.538,11.997-7.017,12.225l0,0l-0.651,0.355l-0.722-0.119v0.001l-0.005-0.001c-0.005-0.001-0.014-0.002-0.025-0.004
	l0,0c-0.035-0.004-0.096-0.011-0.179-0.019l0,0c-0.166-0.015-0.424-0.033-0.743-0.033l0,0c-0.938-0.003-2.377,0.158-3.627,0.803l0,0
	c-1.251,0.663-2.383,1.67-3.112,3.897l0,0c-0.238,0.748-0.327,1.373-0.327,1.899l0,0c0.007,0.909,0.244,1.543,0.648,2.15l0,0
	c0.407,0.599,1.027,1.148,1.774,1.611l0,0c1.488,0.936,3.417,1.455,4.404,1.659l0,0c0.515,0.131,1.959,0.138,3.524,0.264l0,0
	c1.575,0.153,3.431,0.417,5.109,1.631l0,0c1.07,0.771,1.952,2.005,2.339,3.496l0,0c1.536,3.649,2.145,6.876,2.145,9.663l0,0
	c0.005,4.065-1.307,7.136-2.642,9.137l0,0c-1.188,1.788-2.375,2.76-2.73,3.031l0,0c-0.247,0.208-1.684,1.424-3.506,3.063l0,0
	c-2,1.798-4.456,4.11-6.196,6.044l0,0c-1.155,1.249-1.995,2.487-2.051,2.743l0,0c-0.523,1.367-1.425,2.441-2.467,3.51l0,0
	c-1.048,1.056-2.269,2.063-3.499,3.001l0,0c-2.442,1.859-5,3.491-5.936,4.198l0,0c-0.122,0.084-0.355,0.359-0.563,0.845l0,0
	c-0.208,0.479-0.381,1.126-0.495,1.8l0,0c-0.235,1.356-0.241,2.765-0.239,3.373l0,0c-0.027,0.039,0.15,0.861,0.161,1.929l0,0
	c0.003,0.859-0.152,1.934-0.662,3.035l0,0c-0.506,1.106-1.337,2.219-2.562,3.313l0,0c-0.519,0.469-0.839,1.035-1.068,1.854l0,0
	c-0.225,0.811-0.309,1.846-0.308,2.976l0,0c-0.001,1.305,0.106,2.723,0.108,4.135l0,0c-0.001,0.873-0.04,1.75-0.216,2.638l0,0
	c-0.392,1.991-1.138,4.276-2.891,7.389l0,0c-1.755,3.126-4.515,7.16-9.055,12.974l0,0c-4.851,6.175-13.042,11.875-20.079,16.188l0,0
	c-7.032,4.292-12.893,7.108-12.935,7.129l0,0l-0.392,0.189l-0.417,0.02v0c-0.006,0-0.024,0.001-0.053,0.005l0,0
	c-0.058,0.007-0.16,0.02-0.296,0.043l0,0c-0.271,0.049-0.678,0.143-1.144,0.315l0,0c-0.94,0.351-2.092,0.993-3.054,2.23l0,0
	c-0.34,0.448-0.343,0.63-0.346,0.703l0,0c0.002,0.068,0.008,0.173,0.184,0.44l0,0c0.172,0.258,0.521,0.625,1.038,1.015l0,0
	c1.032,0.79,2.686,1.647,4.576,2.453l0,0c2.899,1.254,5.648,3.388,7.771,5.217l0,0c2.11,1.83,3.548,3.36,3.583,3.397l0,0l0.22,0.233
	l0.144,0.291c0.003,0.006,1.614,3.272,3.79,7.512l0,0c2.175,4.238,4.916,9.448,7.129,13.255l0,0
	c2.513,4.365,3.791,10.359,4.569,15.376l0,0c0.704,4.632,0.913,8.386,0.942,8.955l0,0c0.052,0.457,0.264,2.465,0.264,5.38l0,0
	c-0.007,4.915-0.582,12.414-3.687,19.451l0,0c-1.306,2.949-1.727,5.344-1.729,7.25l0,0c0,4.313,2.189,6.381,2.278,6.48l0,0
	l0.081,0.07l15.255,17.049l13.965,10.43c0.337,0.205,1.151,0.74,2.033,1.663l0,0c1.068,1.121,2.276,2.903,2.52,5.327l0,0
	c0.118,1.137,0.598,1.886,1.121,2.452l0,0c0.291,0.314,0.597,0.545,0.811,0.689l0,0c0.75,0.06,2.244,0.19,3.933,0.401l0,0
	c2.439,0.32,5.141,0.716,7.083,1.537l0,0c0.871,0.384,1.588,0.812,2.175,1.411l0,0c0.591,0.593,0.939,1.344,1.099,1.903l0,0
	c0.323,1.148,0.284,1.541,0.799,2.458l0,0c0.009,0.016,0.018,0.03,0.026,0.046l0,0c0.25,0.09,0.506,0.217,0.7,0.365l0,0
	c0.518,0.378,0.847,0.786,1.263,1.362l0,0c0.544,0.77,1.211,1.881,2.182,3.68l0,0c1.051,1.939,2.156,2.918,3.136,3.474l0,0
	c0.982,0.551,1.899,0.688,2.622,0.69l0,0c0.606,0.001,1.058-0.105,1.18-0.14l0,0h0.004l0.023-0.009l0.022-0.007
	c0.163-0.052,2.224-0.691,5.551-0.691l0,0c3.56-0.002,8.58,0.745,14.141,3.728l0,0c1.148,0.609,2.213,0.849,3.289,0.85l0,0
	c2.971,0.05,6.35-2.132,8.992-4.744l0,0c2.643-2.574,4.521-5.389,4.884-5.956l0,0c0.049-0.076,0.064-0.102,0.065-0.102l0,0
	l0.079-0.129l0.097-0.115c0.076-0.088,0.608-0.727,1.54-1.408l0,0c0.929-0.665,2.305-1.441,4.118-1.455l0,0
	c1.935-0.03,4.037,1.074,5.58,3.234l0,0l0.019,0.024l0.013,0.018c1.426,2.035,2.132,3.979,2.133,5.82l0,0
	c0.007,1.615-0.575,3.046-1.371,4.107l0,0c-0.796,1.072-1.774,1.83-2.694,2.396l0,0c-1.845,1.121-3.528,1.52-3.651,1.556l0,0
	l-0.896,0.218l-0.747-0.477c-0.002-0.001-0.005-0.003-0.011-0.006l0,0c-0.018-0.01-0.049-0.026-0.088-0.043l0,0
	c-0.047,0.143-0.101,0.358-0.14,0.655l0,0c-0.358,2.648-1.741,4.591-2.954,5.845l0,0c-1.223,1.261-2.324,1.891-2.44,1.96l0,0
	l-0.28,0.162l-0.32,0.071c-0.036,0.006-15.675,3.52-24.524,4.629l0,0c-6.883,0.859-9.231,2.402-9.571,2.656l0,0
	c-0.913,1.001-8.16,8.947-14.064,14.597l0,0c-2.004,1.9-2.435,3.196-2.403,3.681l0,0c0.008,0.426,0.174,0.832,1.037,1.504l0,0
	c0.837,0.631,2.229,1.251,3.765,1.73l0,0c2.986,0.929,4.824,2.563,5.784,4.05l0,0c0.972,1.485,1.105,2.73,1.125,2.979l0,0
	l0.032,0.399l-6.473,21.67l-0.333,0.363h0c-0.021,0.028-0.064,0.082-0.121,0.161l0,0c-0.113,0.159-0.282,0.418-0.453,0.768l0,0
	c-0.341,0.701-0.696,1.736-0.696,3.093l0,0c0,0.741,0.105,1.585,0.394,2.546l0,0c0.54,1.804,0.747,3.371,0.747,4.697l0,0
	c0.007,3.1-1.149,4.802-1.382,5.087l0,0l-0.068,0.089l-13.563,14.096C131.614,449.081,131.687,449.587,132.33,450.513
	L132.33,450.513z M144.473,339.007l0.001-0.002l0,0l0,0L144.473,339.007L144.473,339.007z"/>
</svg>
