<?xml version="1.0" encoding="UTF-8"?>
<svg xmlns="http://www.w3.org/2000/svg" xmlns:xlink="http://www.w3.org/1999/xlink" width="5000pt" height="4500pt" viewBox="0 0 5000 4500" version="1.1">
<g id="surface1">
<path style=" stroke:none;fill-rule:nonzero;fill:rgb(36.078431%,72.156863%,36.078431%);fill-opacity:1;" d="M 1238.347656 4355.691406 C 1227.992188 4341 1223.796875 4327.308594 1223.828125 4315.875 C 1223.796875 4302.75 1229.277344 4294.277344 1231.375 4291.777344 L 1231.972656 4291.039062 L 1363.664062 4154.191406 C 1364 4153.558594 1364.519531 4152.480469 1365.078125 4150.992188 C 1366.472656 4147.230469 1368.203125 4140.769531 1368.210938 4130.933594 C 1368.210938 4122.480469 1366.921875 4111.519531 1362.777344 4097.710938 C 1358.855469 4084.671875 1357.230469 4072.402344 1357.25 4061.289062 C 1357.355469 4029.007812 1370.421875 4007.527344 1376.914062 3998.796875 L 1433.972656 3807.769531 C 1433.367188 3806.058594 1432.328125 3803.722656 1430.597656 3801.085938 C 1426.191406 3794.597656 1417.867188 3785.632812 1397.222656 3778.972656 C 1380 3773.492188 1363.039062 3766.617188 1348.730469 3756.066406 C 1334.664062 3745.894531 1321.902344 3729.402344 1321.980469 3708.230469 C 1322.289062 3685.453125 1335.117188 3664.757812 1357.921875 3642.789062 C 1387.347656 3614.652344 1420.960938 3579.757812 1447.132812 3551.972656 C 1473.308594 3524.183594 1491.960938 3503.597656 1492.007812 3503.558594 L 1492.347656 3503.164062 L 1492.722656 3502.808594 C 1497.183594 3498.414062 1522.816406 3476.453125 1608.769531 3465.703125 C 1649.222656 3460.652344 1707.519531 3449.664062 1755.316406 3439.972656 C 1794.492188 3432.027344 1826.644531 3424.960938 1837.078125 3422.671875 C 1837.546875 3422.335938 1838.085938 3421.960938 1838.671875 3421.527344 C 1841.402344 3419.539062 1845.230469 3416.441406 1849.097656 3412.441406 C 1856.933594 3404.347656 1864.402344 3393.152344 1866.164062 3379.644531 C 1867.875 3366.941406 1871.808594 3356.183594 1879.566406 3347.953125 C 1887.277344 3339.632812 1898.355469 3336.375 1906.402344 3336.566406 C 1912.808594 3336.75 1918 3337.972656 1922 3339.382812 C 1924.375 3338.527344 1927.210938 3337.414062 1930.242188 3336 C 1938.742188 3332.144531 1948.210938 3325.828125 1953.058594 3319.066406 C 1956.355469 3314.492188 1958.027344 3310.308594 1958.105469 3304.308594 C 1958.105469 3297.585938 1955.546875 3287.269531 1945.355469 3272.546875 C 1935.097656 3259.257812 1929.546875 3258.710938 1925.203125 3258.414062 C 1921.164062 3258.308594 1915.683594 3260.5 1910.972656 3263.816406 C 1907.472656 3266.203125 1904.652344 3268.953125 1903.375 3270.277344 C 1899.066406 3276.972656 1881.941406 3302.710938 1856.230469 3329.058594 C 1826.683594 3358.875 1785.789062 3391.585938 1735.058594 3392.164062 C 1718.191406 3392.210938 1700.617188 3388.085938 1683.816406 3379.058594 C 1636.953125 3353.980469 1596.007812 3348.183594 1567.460938 3348.152344 C 1542.507812 3348.144531 1527.164062 3352.703125 1526.625 3352.855469 C 1524.078125 3353.671875 1515.183594 3356.269531 1502.257812 3356.289062 C 1489.835938 3356.296875 1473.441406 3353.730469 1456.710938 3344.328125 C 1439.960938 3334.980469 1423.433594 3318.894531 1410.289062 3294.382812 C 1400.402344 3275.769531 1393.777344 3265.703125 1390.808594 3261.671875 C 1389.519531 3261.328125 1388.132812 3260.847656 1386.808594 3260.191406 C 1377.382812 3255.085938 1375.007812 3249.742188 1370.710938 3242.875 C 1364.007812 3231.308594 1361.683594 3220.769531 1360.375 3214.882812 C 1358.875 3208.527344 1358.914062 3209.605469 1358.757812 3209.308594 C 1358.441406 3208.953125 1356.453125 3207.210938 1350.980469 3204.835938 C 1344.367188 3201.796875 1327.671875 3197.980469 1311.078125 3195.519531 C 1294.316406 3192.921875 1276.953125 3191.164062 1265.867188 3190.164062 C 1258.472656 3189.5 1253.972656 3189.191406 1253.960938 3189.191406 L 1250.046875 3188.921875 L 1246.519531 3187.257812 C 1245.105469 3186.558594 1235.796875 3182.125 1225.519531 3171.882812 C 1215.316406 3161.789062 1204.039062 3145.046875 1201.777344 3122.019531 C 1200.710938 3111.382812 1195.664062 3102.980469 1189.914062 3096.527344 C 1184.242188 3090.164062 1178.105469 3086.355469 1177.605469 3086.085938 L 1176.519531 3085.480469 L 1036.855469 2981.171875 L 888.972656 2815.894531 C 882.730469 2810.007812 854.191406 2779.472656 854.152344 2723.460938 C 854.144531 2698.875 859.722656 2669.867188 874.335938 2636.914062 C 900.605469 2577.769531 906.289062 2510.578125 906.222656 2466.722656 C 906.230469 2444.789062 904.867188 2428.703125 904.230469 2422.296875 C 904.019531 2420.164062 903.902344 2419.289062 903.902344 2419.289062 L 903.789062 2418.441406 L 903.757812 2417.625 C 903.75 2417.597656 903.355469 2408.710938 902.046875 2393.769531 C 900.757812 2378.816406 898.585938 2358.066406 895.085938 2335.132812 C 888.289062 2289.394531 875.453125 2234.441406 856.308594 2201.941406 C 816.242188 2132.992188 760.941406 2021.867188 751.402344 2002.625 C 751.382812 2002.605469 751.355469 2002.578125 751.335938 2002.546875 C 749.867188 2001.046875 747.691406 1998.847656 744.921875 1996.125 C 739.367188 1990.683594 731.441406 1983.164062 722.097656 1975.078125 C 703.527344 1958.875 678.855469 1940.421875 658.230469 1931.703125 C 628.75 1918.597656 602.242188 1905.894531 586.222656 1883.492188 C 581.007812 1875.882812 577.25 1866.316406 577.277344 1855.902344 C 577.242188 1844.191406 582.019531 1832.933594 589.375 1823.605469 C 614.441406 1791.882812 646.566406 1784.855469 658.769531 1783.210938 C 660.316406 1782.441406 662.453125 1781.394531 665.117188 1780.046875 C 671.277344 1776.960938 680.210938 1772.394531 691.222656 1766.566406 C 713.242188 1754.921875 743.519531 1738.222656 776.394531 1718.152344 C 842.105469 1678.203125 918.382812 1623.875 958.355469 1572.402344 C 1001.308594 1517.433594 1026.730469 1480.007812 1041.914062 1452.914062 C 1057.117188 1425.671875 1062.058594 1409.527344 1065.203125 1394.039062 C 1066.066406 1389.796875 1066.492188 1383.808594 1066.472656 1376.828125 C 1066.492188 1365.5 1065.453125 1351.683594 1065.433594 1337.066406 C 1065.453125 1324.367188 1066.203125 1310.960938 1069.855469 1297.480469 C 1073.460938 1284.085938 1080.472656 1270.335938 1092.519531 1259.617188 C 1100.921875 1252.085938 1104.953125 1246.027344 1107.078125 1241.421875 C 1109.171875 1236.769531 1109.617188 1233.367188 1109.652344 1229.566406 C 1109.777344 1224.617188 1108.355469 1220.007812 1108.105469 1211.019531 C 1108.335938 1201.277344 1107.5 1171.269531 1118.585938 1144.796875 C 1122.453125 1135.933594 1127.992188 1126.894531 1137.210938 1119.894531 C 1146.164062 1113.210938 1161.085938 1103.546875 1177.558594 1091.828125 C 1193.894531 1080.230469 1211.402344 1066.75 1223.347656 1054.664062 C 1231.355469 1046.75 1236.527344 1039.105469 1237.578125 1035.808594 C 1243.078125 1021.808594 1252.992188 1010.117188 1265.421875 995.972656 C 1277.828125 982.191406 1292.710938 967.558594 1307.164062 953.992188 C 1336.019531 926.894531 1363.078125 904.222656 1363.242188 904.066406 L 1363.882812 903.527344 L 1364.433594 903.144531 C 1364.566406 903.039062 1364.835938 902.828125 1365.210938 902.519531 C 1366.007812 901.855469 1367.289062 900.730469 1368.914062 899.152344 C 1372.132812 895.980469 1376.664062 890.960938 1381.210938 884.117188 C 1390.316406 870.296875 1399.644531 849.433594 1399.683594 819.230469 C 1399.671875 798.191406 1395.085938 772.382812 1381.742188 741.078125 L 1381.046875 739.472656 L 1380.644531 737.769531 C 1379.414062 732.835938 1377.777344 730.328125 1375.777344 728.171875 C 1373.75 726.058594 1370.921875 724.210938 1366.777344 722.625 C 1358.539062 719.355469 1345.539062 718.183594 1332.597656 717.632812 C 1323.867188 717.144531 1315.367188 716.980469 1306.421875 715.132812 C 1297.664062 713.25 1282.789062 709.578125 1266.902344 702.382812 C 1251.097656 695.132812 1233.730469 684.367188 1221.394531 666.460938 C 1213.210938 654.597656 1207.867188 639.347656 1207.921875 622.355469 C 1207.921875 612.546875 1209.605469 602.230469 1213.019531 591.519531 C 1222.796875 559.980469 1243.144531 539.828125 1263.683594 529.597656 C 1284.242188 519.183594 1304.308594 517.375 1317.441406 517.347656 C 1319.796875 517.347656 1321.933594 517.402344 1323.828125 517.5 C 1326.546875 515.085938 1330.382812 511.257812 1334.757812 505.519531 C 1344.757812 492.414062 1357.789062 469.347656 1366.75 430.335938 C 1374.527344 395.992188 1391.816406 370.335938 1413.183594 354.105469 C 1434.527344 337.816406 1459.230469 330.828125 1481.972656 330.816406 C 1499.058594 330.855469 1515.25 334.652344 1528.980469 342.453125 C 1566.394531 363.847656 1644.066406 413.933594 1644.25 414.039062 L 1651.152344 418.492188 L 1653.152344 426.472656 C 1653.152344 426.472656 1653.605469 428.269531 1654.566406 431.617188 C 1655.539062 434.953125 1656.972656 439.625 1658.757812 444.691406 C 1661.710938 453.289062 1666.210938 463.308594 1669.921875 468.953125 C 1677.941406 461.914062 1687.691406 451.144531 1698.992188 440.269531 C 1713.203125 426.828125 1731.019531 412.402344 1755.539062 407.632812 C 1762.085938 406.414062 1768.808594 406.039062 1776.144531 406.019531 C 1826.566406 406.289062 1910.710938 425.117188 1918.644531 426.941406 C 1920.921875 427.527344 1923.921875 428.453125 1929.625 429.566406 C 1935.058594 430.632812 1942.164062 431.585938 1949.492188 431.585938 C 1962.117188 431.597656 1974.203125 428.730469 1982.402344 421.421875 C 1990.519531 414.171875 1998.605469 400.847656 1998.796875 369.992188 C 1998.796875 366.789062 1998.722656 363.421875 1998.539062 360.210938 C 1998.382812 358.066406 1998.308594 355.902344 1998.308594 353.710938 C 1998.25 330.691406 2007.191406 310.777344 2019.308594 295.527344 C 2031.460938 280.164062 2046.664062 268.730469 2061.328125 259.894531 C 2090.683594 242.355469 2118.539062 235.058594 2119.617188 234.730469 L 2120.527344 234.480469 L 2121.421875 234.335938 C 2121.710938 234.289062 2262.5 210.046875 2287.269531 206.808594 C 2288.902344 206.625 2289.566406 206.472656 2291.375 206.382812 C 2291.558594 206.355469 2291.796875 206.296875 2292.097656 206.230469 C 2293.257812 205.972656 2295.164062 205.5 2297.492188 204.847656 C 2302.144531 203.546875 2308.539062 201.585938 2315.671875 199.132812 C 2329.941406 194.242188 2347.382812 187.347656 2361.058594 180.171875 C 2370.132812 175.507812 2377.578125 170.382812 2380.480469 167.367188 C 2389.394531 158.472656 2406.171875 142.625 2426.125 128.402344 C 2446.308594 114.453125 2468.769531 100.875 2494.953125 100.347656 C 2504.097656 100.316406 2513.972656 102.472656 2522.710938 107.808594 C 2531.5 113.105469 2538.605469 121.25 2543.578125 130.941406 C 2559.164062 161.625 2562.230469 197.757812 2562.375 228.058594 C 2562.367188 258.316406 2558.777344 282.730469 2557.902344 288.289062 C 2557.867188 289.058594 2557.789062 290.375 2557.710938 292.296875 C 2557.578125 295.617188 2557.460938 300.539062 2557.460938 306.722656 C 2557.453125 326.777344 2558.875 360.152344 2566.078125 395 C 2573.210938 429.875 2586.316406 465.914062 2607.730469 491.796875 C 2622.058594 509.132812 2639.605469 522.203125 2662.867188 529.414062 L 2664.105469 529.796875 L 2665.328125 530.347656 C 2703.203125 547.546875 2732.125 565.625 2764.25 578.789062 C 2796.453125 591.953125 2832.316406 601.183594 2887.125 601.25 C 2944.617188 601.257812 3006.421875 602.527344 3064.058594 609.867188 C 3121.683594 617.296875 3175.277344 630.414062 3216.914062 656.414062 C 3251.171875 678.078125 3278.125 706.789062 3306.683594 728.632812 C 3335.402344 750.605469 3363.75 765.816406 3403.097656 765.953125 C 3417.777344 765.953125 3434.222656 763.75 3453.019531 758.460938 C 3488.527344 741.117188 3511.328125 718.441406 3532.183594 696.355469 C 3553.308594 674.347656 3572.007812 651.144531 3602.875 640.441406 C 3624.710938 633.164062 3648.085938 624.019531 3671.308594 616.5 C 3694.566406 609.046875 3717.597656 602.980469 3740.328125 602.894531 C 3742.027344 602.894531 3743.777344 602.914062 3745.480469 603.007812 C 3747.683594 603.105469 3749.828125 603.152344 3751.921875 603.152344 C 3781.769531 603.027344 3801.039062 594.066406 3815.203125 588.730469 C 3820.972656 586.652344 3825.558594 586.355469 3830.558594 586.289062 C 3839.222656 586.328125 3848.617188 587.902344 3858.347656 591.585938 C 3867.921875 595.335938 3878.132812 601.277344 3885.703125 612.007812 C 3890.703125 619.085938 3893.914062 628.460938 3893.867188 638.269531 C 3893.828125 650.558594 3889.382812 662.683594 3881.597656 674.867188 C 3853.902344 716.816406 3799.519531 747.722656 3768.875 765.230469 C 3758.882812 770.777344 3750.796875 775.097656 3749.566406 775.914062 L 3749.558594 775.894531 C 3745.277344 778.777344 3743.875 778.867188 3741.742188 779.789062 C 3739.710938 780.519531 3737.664062 781.171875 3735.394531 781.894531 C 3730.902344 783.308594 3725.558594 784.941406 3719.972656 786.902344 C 3708.847656 790.683594 3696.730469 796.441406 3691.605469 801.289062 C 3688.019531 804.703125 3688.347656 805.558594 3688.316406 805.644531 C 3688.191406 805.796875 3688.691406 810.777344 3698.414062 820.171875 C 3712.585938 834.132812 3720.941406 835.953125 3721.460938 835.597656 C 3721.578125 835.566406 3721.632812 835.566406 3721.664062 835.578125 C 3721.816406 835.578125 3721.847656 835.585938 3723.105469 834.664062 C 3724.605469 833.460938 3727.171875 830.328125 3729.769531 825.894531 C 3735.402344 816.902344 3739.882812 804.242188 3749.375 792.347656 C 3757.808594 782.730469 3768.5 776.210938 3782.894531 767.625 C 3797.117188 759.375 3814.296875 750.585938 3832.210938 742.058594 C 3868.164062 725.007812 3906.257812 709.316406 3929.289062 702.546875 C 3950.597656 696.375 3972.566406 690.789062 3989.585938 683.777344 C 4006.933594 676.847656 4017.382812 668.507812 4020.230469 661.683594 C 4026.394531 648.75 4035.328125 637.441406 4044.132812 626.632812 C 4052.941406 615.921875 4061.730469 605.855469 4067.164062 598.191406 C 4069.375 595.183594 4070.894531 592.527344 4071.722656 590.867188 C 4071.230469 590.117188 4070.375 589.046875 4068.5 586.453125 C 4064.507812 581.558594 4059.777344 570.375 4060.257812 559.375 C 4060.277344 551.875 4061.421875 543.558594 4063.769531 532.742188 C 4067.203125 517.046875 4073.722656 496.527344 4082.480469 476.039062 C 4091.367188 455.558594 4101.992188 435.433594 4115.882812 420.308594 C 4125.132812 410.578125 4136.921875 401.222656 4153.914062 400.882812 C 4158.441406 400.875 4163.132812 401.703125 4167.492188 403.316406 C 4182.519531 408.882812 4229.742188 423.355469 4272.144531 436.039062 C 4314.722656 448.789062 4353.132812 460.007812 4353.210938 460.027344 L 4353.5 460.117188 L 4353.953125 460.269531 C 4359.566406 462.125 4373.597656 469.527344 4390.855469 496.472656 C 4398.183594 507.894531 4404.164062 515.480469 4409.703125 520.507812 C 4415.269531 525.527344 4420.347656 528.527344 4428.433594 531.277344 C 4445.710938 537.289062 4483.980469 551.546875 4509.222656 572.75 C 4517.453125 580.058594 4525.480469 588.402344 4528.730469 601.828125 L 4528.742188 601.828125 C 4528.742188 601.828125 4528.742188 601.828125 4528.75 601.847656 C 4528.828125 602 4529 602.367188 4529.328125 602.894531 C 4530 603.992188 4531.328125 605.757812 4533.152344 607.882812 C 4536.828125 612.152344 4542.480469 617.730469 4548.519531 624.472656 C 4560.394531 637.683594 4575.183594 657.289062 4575.222656 684.757812 C 4575.242188 697.394531 4571.992188 710.847656 4565.289062 724.644531 C 4551.585938 752.441406 4539.078125 785.039062 4539.335938 809.480469 C 4539.414062 823.019531 4542.480469 833.277344 4549.644531 842.085938 C 4556.875 850.867188 4569.652344 859.421875 4593.039062 865.117188 C 4620.855469 871.855469 4640.296875 881.472656 4653.664062 894.402344 C 4667.117188 907.222656 4672.828125 923.914062 4672.617188 937.796875 C 4672.191406 958.046875 4663.777344 972.5 4659.203125 979.183594 C 4656.855469 987.125 4650.652344 1004.847656 4637.117188 1023.382812 C 4619.894531 1047.441406 4587.375 1073.019531 4538.960938 1072.742188 C 4530.375 1072.742188 4521.382812 1071.972656 4511.933594 1070.375 C 4491.914062 1066.972656 4477.644531 1065.492188 4468.460938 1065.507812 C 4461.097656 1065.472656 4457.347656 1066.527344 4456.5 1066.921875 C 4456.308594 1067.269531 4455.980469 1067.980469 4455.617188 1069.191406 C 4453.027344 1076.152344 4451.941406 1096.777344 4440.691406 1121.027344 C 4418.644531 1167.941406 4384.132812 1205.066406 4372.597656 1216.855469 C 4371.882812 1219.335938 4370.960938 1222.914062 4370 1227.472656 C 4367.914062 1237.441406 4365.789062 1252.039062 4365.789062 1269.769531 C 4365.789062 1274.855469 4365.960938 1280.164062 4366.375 1285.710938 C 4368.902344 1321.382812 4370.546875 1348.730469 4370.558594 1368.652344 C 4370.558594 1375.972656 4370.347656 1382.296875 4369.789062 1388 C 4369.625 1388.941406 4369.632812 1394.335938 4369.453125 1400.847656 C 4369.230469 1407.492188 4368.664062 1415.789062 4366.789062 1424.941406 C 4363.183594 1443.132812 4353.480469 1465.480469 4331.617188 1482.269531 C 4317.164062 1493.472656 4297.992188 1501.992188 4273.421875 1506.789062 C 4240.992188 1513.078125 4223.683594 1518.585938 4215.296875 1523.191406 C 4207.144531 1527.894531 4205.757812 1530.066406 4199.421875 1539.933594 C 4195.472656 1546.347656 4190.289062 1555.375 4182.210938 1566.308594 C 4160.105469 1596.132812 4133.328125 1631.933594 4121.242188 1654.816406 C 4117.203125 1662.210938 4115.085938 1668.441406 4115.027344 1669.710938 C 4112.980469 1683.460938 4107.730469 1698.960938 4096.835938 1713.980469 C 4085.980469 1729.066406 4069.972656 1743.691406 4046.777344 1758.546875 C 4026.585938 1771.394531 4008.835938 1786.597656 3986.441406 1800.347656 C 3964.117188 1814.078125 3936.941406 1825.566406 3900.914062 1829.257812 C 3869.367188 1832.578125 3835.894531 1839.328125 3808.671875 1846.085938 C 3781.722656 1852.703125 3759.757812 1859.902344 3754.730469 1862.222656 C 3749.742188 1864.355469 3746.019531 1864.875 3741.972656 1865.394531 C 3737.980469 1865.835938 3733.847656 1866 3729.375 1866.007812 C 3702.5 1865.882812 3661.703125 1860.066406 3631.777344 1851.171875 C 3621.722656 1848.078125 3613.066406 1844.914062 3605.132812 1839.921875 C 3595.5 1833.414062 3573.527344 1827.652344 3553.058594 1827.867188 C 3540.546875 1827.828125 3528.480469 1829.789062 3519.980469 1833.152344 C 3517 1833.882812 3505.835938 1842.703125 3498.222656 1854.617188 C 3490.171875 1866.492188 3484.703125 1881.210938 3484.816406 1892.835938 C 3484.875 1899.914062 3486.433594 1905.757812 3490.171875 1911.382812 C 3493.953125 1916.980469 3500.382812 1922.867188 3512.230469 1928.152344 C 3539.269531 1940.222656 3572.617188 1950.808594 3604.296875 1963.546875 C 3635.933594 1976.433594 3666.453125 1991.058594 3688.066406 2015.230469 C 3702.433594 2031.242188 3711.953125 2052.644531 3711.796875 2076.972656 C 3711.796875 2079.191406 3711.722656 2081.335938 3711.597656 2083.585938 C 3706.289062 2170.191406 3670.058594 2218.125 3643.652344 2240.183594 C 3641.105469 2242.269531 3639.617188 2243.183594 3636.644531 2245.171875 C 3633.847656 2247.007812 3630.222656 2249.347656 3625.742188 2252.171875 C 3616.789062 2257.796875 3604.480469 2265.414062 3589.222656 2274.757812 C 3558.710938 2293.441406 3516.453125 2319.039062 3466.367188 2349.222656 C 3366.203125 2409.578125 3234.808594 2488.242188 3104.125 2566.308594 C 2848.578125 2718.941406 2595.730469 2869.328125 2584.597656 2875.941406 C 2583.847656 2876.441406 2581.847656 2877.75 2578.632812 2879.921875 C 2574.453125 2882.757812 2568.328125 2886.980469 2560.617188 2892.472656 C 2545.183594 2903.433594 2523.382812 2919.460938 2498.191406 2939.539062 C 2447.796875 2979.652344 2383.757812 3036.085938 2329.730469 3100.25 C 2302.960938 3132.492188 2288.855469 3156.433594 2279.992188 3174.347656 C 2270.921875 3192.421875 2267.941406 3204.097656 2260.316406 3216.730469 C 2253.355469 3227.152344 2244.539062 3233.894531 2234.796875 3242.019531 C 2225.152344 3249.757812 2214.847656 3257.566406 2207.710938 3263.882812 C 2204.453125 3266.664062 2201.902344 3269.367188 2200.664062 3270.816406 C 2199.835938 3278.132812 2198.472656 3291.328125 2195.941406 3304.933594 C 2192.625 3320.808594 2189.421875 3337.105469 2178.144531 3351.460938 C 2173.625 3356.960938 2167.328125 3360.125 2162.269531 3361.441406 C 2157.105469 3362.835938 2152.75 3363.007812 2148.644531 3363.039062 C 2138.769531 3362.960938 2129.539062 3361.671875 2118.847656 3361.722656 C 2096.164062 3362.066406 2068.25 3365.796875 2030.847656 3400.125 C 1975.902344 3451.203125 1853.164062 3587.992188 1789.335938 3660.941406 C 1768.117188 3685.164062 1752.875 3703.007812 1749.828125 3706.914062 C 1743.066406 3715.257812 1733.75 3722.828125 1721.480469 3732.644531 C 1709.382812 3742.164062 1695.066406 3752.722656 1681.277344 3762.625 C 1653.710938 3782.421875 1628.269531 3799.605469 1628.164062 3799.683594 L 1623.742188 3802.683594 L 1618.394531 3803.152344 C 1617.972656 3803.203125 1612.019531 3803.730469 1603.632812 3803.730469 C 1596.519531 3803.722656 1587.722656 3803.375 1578.585938 3801.777344 C 1572.027344 3800.480469 1565.125 3798.933594 1558.203125 3795.144531 C 1552.203125 3806.808594 1546.269531 3820.164062 1545.328125 3822.769531 C 1545.328125 3822.769531 1545.328125 3822.777344 1545.316406 3822.816406 C 1544.210938 3826.097656 1529.132812 3873.933594 1514.566406 3920.25 C 1501.453125 3961.914062 1488.625 4002.710938 1486.105469 4010.742188 C 1486.105469 4010.769531 1486.105469 4010.777344 1486.097656 4010.808594 C 1486 4011.683594 1485.875 4013.144531 1485.875 4015.027344 C 1485.875 4020.25 1486.867188 4028.230469 1491.257812 4036.019531 C 1495.730469 4043.816406 1503.296875 4052.289062 1520.472656 4059.453125 C 1532.777344 4064.460938 1542.769531 4071.414062 1549.644531 4080.605469 C 1556.597656 4089.722656 1559.566406 4100.722656 1559.480469 4110.375 C 1559.203125 4128.972656 1551.058594 4143.144531 1544.191406 4153.644531 C 1537.144531 4164.085938 1530.5 4170.710938 1529.902344 4171.335938 L 1526.914062 4174.328125 L 1523 4175.902344 C 1522.992188 4175.914062 1519.453125 4177.335938 1513.328125 4180.007812 C 1507.191406 4182.671875 1498.625 4186.507812 1488.992188 4191.125 C 1469.75 4200.347656 1446.085938 4212.972656 1429.972656 4224.894531 C 1419.144531 4232.5 1412.394531 4240.972656 1412.480469 4242.058594 C 1403.578125 4264.296875 1383.671875 4289.703125 1365.296875 4312.414062 C 1347 4334.691406 1330.558594 4352.453125 1330.382812 4352.644531 L 1329.117188 4354.019531 L 1327.597656 4355.152344 C 1326.992188 4355.605469 1321.039062 4360.066406 1312 4364.75 C 1302.882812 4369.335938 1290.882812 4374.664062 1275.828125 4374.835938 C 1275.414062 4374.855469 1274.992188 4374.867188 1274.566406 4374.867188 C 1262.421875 4374.914062 1247.132812 4368.835938 1238.347656 4355.691406 Z M 1272.402344 4331.855469 C 1274.007812 4333.507812 1272.703125 4332.902344 1275.847656 4333.328125 C 1278.902344 4333.453125 1285.191406 4331.691406 1290.617188 4329.027344 C 1295.230469 4326.835938 1299.308594 4324.257812 1301.335938 4322.875 C 1302.992188 4321.066406 1305.992188 4317.75 1309.941406 4313.296875 C 1316.105469 4306.335938 1324.480469 4296.703125 1333.183594 4286.097656 C 1350.527344 4265.289062 1369.617188 4238.722656 1373.703125 4227.183594 C 1380.277344 4211.382812 1392.039062 4201.664062 1405.335938 4191.480469 C 1418.742188 4181.632812 1434.308594 4172.566406 1449.328125 4164.632812 C 1472.316406 4152.492188 1493.972656 4143.078125 1503.007812 4139.269531 C 1503.046875 4139.210938 1503.105469 4139.152344 1503.152344 4139.105469 C 1504.941406 4137.019531 1507.382812 4133.972656 1509.742188 4130.480469 C 1514.632812 4123.539062 1518.230469 4114.585938 1517.953125 4110.433594 C 1517.867188 4108.164062 1517.625 4107.328125 1516.421875 4105.605469 C 1515.183594 4103.921875 1512.105469 4101 1504.769531 4097.972656 C 1480.019531 4087.972656 1463.816406 4072.316406 1455.027344 4056.402344 C 1446.152344 4040.519531 1444.347656 4025.242188 1444.347656 4015.097656 C 1444.347656 4007.664062 1445.308594 4002.777344 1445.527344 4001.683594 L 1445.75 4000.664062 L 1446.027344 3999.757812 C 1446.085938 3999.585938 1503.085938 3818.222656 1505.902344 3809.769531 C 1507 3806.585938 1508.277344 3803.683594 1510.316406 3799.046875 C 1512.308594 3794.585938 1514.835938 3789.144531 1517.644531 3783.453125 C 1523.375 3771.902344 1529.460938 3760.027344 1536.046875 3751.203125 C 1538.152344 3748.585938 1539.902344 3746.097656 1544.375 3742.875 C 1546.835938 3741.316406 1550.539062 3738.816406 1557.597656 3738.664062 C 1562.347656 3738.519531 1568.277344 3740.683594 1571.894531 3743.960938 C 1575.605469 3747.183594 1577.308594 3750.558594 1578.308594 3753.078125 C 1579.242188 3755.625 1579.691406 3757.664062 1579.921875 3759.441406 C 1580.289062 3759.566406 1580.683594 3759.691406 1581.125 3759.816406 C 1586.539062 3761.519531 1596.335938 3762.308594 1603.691406 3762.242188 C 1605.921875 3762.242188 1607.960938 3762.203125 1609.664062 3762.125 C 1615.289062 3758.296875 1625.472656 3751.308594 1637.539062 3742.828125 C 1656.007812 3729.867188 1678.855469 3713.433594 1695.816406 3700.066406 C 1706.933594 3691.460938 1716.125 3683.007812 1717.152344 3681.394531 C 1721.902344 3675.347656 1736.539062 3658.328125 1758.125 3633.664062 C 1779.585938 3609.132812 1807.480469 3577.632812 1837.269531 3544.519531 C 1896.941406 3478.242188 1963.703125 3406 2002.578125 3369.777344 C 2046.632812 3328.210938 2089.585938 3319.875 2118.902344 3320.230469 C 2132.085938 3320.257812 2142.789062 3321.558594 2148.269531 3321.558594 C 2150.5 3316.597656 2153.585938 3306.980469 2155.125 3297.382812 C 2157.617188 3283.992188 2158.867188 3270.492188 2159.796875 3262.902344 C 2161.683594 3251.882812 2166.402344 3247.347656 2170.472656 3242.316406 C 2174.777344 3237.539062 2179.625 3233.25 2184.816406 3228.882812 C 2195.132812 3220.25 2206.914062 3211.5 2215.402344 3204.242188 C 2221 3199.605469 2225.164062 3194.980469 2225.210938 3194.617188 C 2227.972656 3190.796875 2232.789062 3176.460938 2242.769531 3156 C 2252.960938 3135.375 2269.164062 3108.222656 2297.902344 3073.664062 C 2411.414062 2939.039062 2561.441406 2841.617188 2562.289062 2840.992188 L 2562.566406 2840.789062 L 2563.007812 2840.546875 C 2563.132812 2840.460938 2610.578125 2812.257812 2685.539062 2767.625 C 2760.5 2722.980469 2862.855469 2662.019531 2972.402344 2596.652344 C 3191.492188 2465.933594 3439.433594 2317.597656 3554.5 2247.394531 C 3587.25 2227.421875 3609.625 2213.492188 3616.117188 2209.046875 C 3616.585938 2208.722656 3616.894531 2208.492188 3617.058594 2208.382812 C 3635.703125 2192.242188 3665.097656 2157.007812 3670.144531 2081.210938 C 3670.25 2079.710938 3670.289062 2078.328125 3670.269531 2077.078125 C 3670.132812 2062.933594 3665.789062 2053.105469 3656.953125 2042.847656 C 3648.105469 2032.75 3634.085938 2023.210938 3616.757812 2014.617188 C 3582.078125 1997.191406 3535.492188 1983.972656 3495.394531 1966.257812 C 3477.953125 1958.539062 3464.480469 1947.75 3455.722656 1934.671875 C 3446.902344 1921.632812 3443.242188 1906.828125 3443.296875 1892.933594 C 3443.441406 1869.691406 3452.414062 1848.652344 3463.710938 1831.617188 C 3475.421875 1814.617188 3488.472656 1801.355469 3504.941406 1794.519531 C 3520.039062 1788.691406 3536.566406 1786.433594 3553.105469 1786.402344 C 3580.269531 1786.617188 3607.152344 1792.210938 3627.664062 1805.066406 C 3629.472656 1806.328125 3635.828125 1809.132812 3643.828125 1811.480469 C 3651.882812 1813.914062 3661.816406 1816.25 3672.171875 1818.210938 C 3692.847656 1822.144531 3715.644531 1824.585938 3729.421875 1824.546875 C 3733.902344 1824.578125 3737.527344 1824.230469 3738.664062 1824.019531 C 3749.460938 1819.433594 3770.5 1812.914062 3798.722656 1805.847656 C 3827.355469 1798.75 3862.328125 1791.632812 3896.617188 1788.027344 C 3926.402344 1784.808594 3946.007812 1776.375 3964.828125 1764.972656 C 3983.566406 1753.597656 4001.308594 1738.492188 4024.421875 1723.625 C 4044.539062 1710.757812 4056.25 1699.402344 4063.132812 1689.808594 C 4070 1680.152344 4072.546875 1672.257812 4073.972656 1663.5 C 4075.644531 1653.5 4079.578125 1645.007812 4084.585938 1635.414062 C 4089.632812 1625.933594 4095.960938 1615.828125 4103.019531 1605.289062 C 4117.117188 1584.25 4134.152344 1561.566406 4148.828125 1541.710938 C 4155.472656 1532.710938 4159.605469 1525.519531 4164.097656 1518.230469 C 4168.527344 1511.058594 4173.652344 1503.203125 4181.835938 1496.125 C 4198.769531 1481.882812 4220.691406 1475.078125 4265.492188 1466.117188 C 4294.941406 1460.183594 4308.519531 1449.625 4316.394531 1439.242188 C 4324.222656 1428.789062 4326.835938 1416.5 4327.683594 1405.085938 C 4328.289062 1397.328125 4327.875 1391.203125 4328.480469 1384.007812 C 4328.835938 1380.382812 4329.058594 1375.183594 4329.058594 1368.769531 C 4329.066406 1351.097656 4327.507812 1324.132812 4324.972656 1288.828125 C 4324.480469 1282.210938 4324.296875 1275.875 4324.296875 1269.882812 C 4324.316406 1227.757812 4334.289062 1200.328125 4334.882812 1198.710938 L 4336.527344 1194.210938 L 4339.980469 1190.902344 C 4339.980469 1190.894531 4340.421875 1190.460938 4341.539062 1189.347656 C 4342.644531 1188.242188 4344.308594 1186.539062 4346.382812 1184.328125 C 4350.558594 1179.902344 4356.414062 1173.441406 4362.980469 1165.433594 C 4376.132812 1149.433594 4392.085938 1127.203125 4403.085938 1103.566406 C 4407.578125 1093.941406 4409.703125 1085.453125 4411.433594 1077.046875 C 4413.269531 1068.644531 4414.171875 1060.316406 4418.472656 1050.382812 C 4421.269531 1043.855469 4426.671875 1036.558594 4434.242188 1031.933594 C 4444.414062 1025.722656 4455.585938 1024.117188 4468.527344 1024.058594 C 4481.757812 1024.078125 4497.730469 1025.933594 4518.921875 1029.507812 C 4526.242188 1030.742188 4532.914062 1031.289062 4539.019531 1031.289062 C 4571.777344 1031.019531 4589.632812 1016.652344 4602.492188 1000.453125 C 4614.730469 984.652344 4619.625 967.058594 4619.941406 965.617188 L 4619.933594 965.617188 L 4621 961.027344 L 4623.933594 957.347656 L 4624 957.375 L 4623.933594 957.347656 L 4624 957.375 L 4623.933594 957.347656 C 4624.085938 957.144531 4624.355469 956.777344 4624.703125 956.25 C 4625.394531 955.203125 4626.433594 953.539062 4627.421875 951.519531 C 4629.472656 947.5 4631.144531 942.191406 4631.085938 937.914062 C 4630.875 933.402344 4630.296875 930.027344 4624.710938 924.289062 C 4619.039062 918.671875 4606.644531 911.222656 4583.335938 905.632812 C 4554.066406 898.605469 4532.019531 886.152344 4517.605469 868.625 C 4503.144531 851.144531 4497.730469 829.828125 4497.796875 809.597656 C 4498.039062 772.644531 4513.597656 736.507812 4527.933594 706.617188 C 4532.367188 697.402344 4533.703125 690.480469 4533.710938 684.875 C 4533.664062 676.027344 4530.421875 668.808594 4524.367188 660.5 C 4518.335938 652.289062 4509.769531 644.335938 4501.757812 635.183594 C 4496.605469 629.007812 4490.894531 622.171875 4488.257812 611.144531 C 4488.242188 611.132812 4488.242188 611.117188 4488.230469 611.105469 C 4488.125 610.894531 4487.867188 610.421875 4487.394531 609.777344 C 4486.460938 608.492188 4484.671875 606.527344 4482.171875 604.402344 C 4477.203125 600.097656 4469.546875 595.132812 4461.171875 590.617188 C 4444.421875 581.527344 4424.671875 573.933594 4415.347656 570.835938 C 4402.652344 566.671875 4391.257812 560.144531 4381.683594 551.308594 C 4372.046875 542.460938 4364.183594 531.875 4355.921875 519.046875 C 4347.375 505.777344 4341.433594 500.816406 4339.539062 499.441406 C 4331.027344 496.953125 4297.191406 487.027344 4260.257812 475.972656 C 4217.921875 463.277344 4172.242188 449.355469 4153.835938 442.683594 C 4153.605469 442.777344 4153.257812 442.941406 4152.835938 443.183594 C 4151.421875 443.992188 4149.027344 445.847656 4146.367188 448.730469 C 4140.980469 454.460938 4134.632812 464.078125 4128.933594 475.117188 C 4117.402344 497.171875 4107.933594 525.257812 4104.421875 541.691406 C 4102.421875 550.769531 4101.847656 556.519531 4101.867188 559.472656 C 4101.867188 560.921875 4101.980469 561.644531 4102.027344 561.882812 C 4102.097656 561.980469 4102.210938 562.152344 4102.394531 562.414062 C 4103.5 564.058594 4109.742188 571.152344 4112.777344 581.796875 C 4113.558594 584.597656 4113.960938 587.519531 4113.960938 590.453125 C 4113.578125 602.816406 4108.703125 610.433594 4103.972656 618.125 C 4099.007812 625.683594 4093.097656 632.921875 4087.007812 640.230469 C 4074.921875 654.578125 4062.222656 669.828125 4057.882812 679.472656 C 4046.875 702.097656 4026.132812 713.683594 4005.375 722.335938 C 3984.289062 730.921875 3961.242188 736.585938 3940.960938 742.539062 C 3912.894531 750.585938 3841.960938 781.367188 3803.808594 803.652344 C 3791.242188 810.683594 3781.566406 818.257812 3781.347656 819.046875 C 3779.382812 821.132812 3775.25 829.007812 3770.703125 837.941406 C 3765.847656 846.902344 3760.433594 857.433594 3749.992188 866.492188 C 3743.132812 872.460938 3732.808594 877.355469 3721.492188 877.25 C 3702.980469 876.902344 3687.203125 867.027344 3669.527344 850.117188 C 3655.722656 836.757812 3646.914062 822.269531 3646.769531 805.722656 C 3646.710938 795.066406 3650.953125 785.382812 3656.414062 778.414062 C 3661.894531 771.328125 3668.453125 766.25 3675.125 762.046875 C 3688.5 753.75 3702.972656 748.757812 3714 745.132812 C 3719.960938 743.230469 3725.347656 741.566406 3727.335938 740.882812 C 3729.519531 739.472656 3731.117188 738.683594 3733.796875 737.152344 C 3737.046875 735.367188 3741.132812 733.144531 3745.921875 730.507812 C 3755.472656 725.230469 3767.75 718.242188 3780.644531 710.027344 C 3806.433594 693.808594 3834.527344 671.757812 3846.625 652.472656 C 3851.566406 644.789062 3852.347656 640.125 3852.316406 638.335938 C 3852.25 636.828125 3852.117188 636.671875 3851.585938 635.777344 C 3851.039062 634.960938 3849.683594 633.605469 3847.355469 632.296875 C 3842.894531 629.546875 3834.730469 627.796875 3830.605469 627.921875 C 3829.960938 627.921875 3829.433594 627.953125 3829.125 627.992188 C 3817 632.578125 3789.578125 644.914062 3751.980469 644.789062 C 3749.269531 644.789062 3746.507812 644.730469 3743.566406 644.605469 C 3742.585938 644.546875 3741.527344 644.527344 3740.382812 644.527344 C 3725.539062 644.441406 3705.683594 649.105469 3684.152344 656.132812 C 3662.566406 663.097656 3639.289062 672.203125 3616.078125 679.953125 C 3600.191406 684.828125 3584.230469 701.472656 3562.492188 724.933594 C 3540.75 748 3512.816406 776.097656 3469.507812 796.777344 L 3467.972656 797.507812 L 3466.316406 797.992188 C 3443.558594 804.566406 3422.597656 807.605469 3403.152344 807.605469 C 3352 807.730469 3312.992188 786.203125 3281.347656 761.632812 C 3249.539062 736.941406 3223.125 709.289062 3194.855469 691.691406 C 3162 670.914062 3113.382812 658.039062 3058.847656 651.183594 C 3004.316406 644.222656 2944.007812 642.894531 2887.171875 642.902344 C 2827.664062 642.980469 2784.722656 632.289062 2748.472656 617.308594 C 2712.597656 602.472656 2683.710938 584.414062 2649.347656 568.816406 C 2618.335938 559.019531 2593.882812 540.539062 2575.652344 518.308594 C 2557.105469 495.710938 2544.578125 469.402344 2535.847656 442.960938 C 2518.460938 390.066406 2515.972656 336.152344 2515.921875 306.816406 C 2515.921875 293.277344 2516.507812 285.007812 2516.527344 284.617188 L 2516.597656 283.578125 L 2516.769531 282.597656 C 2516.757812 282.597656 2516.980469 281.355469 2517.367188 278.664062 C 2517.742188 275.960938 2518.257812 271.980469 2518.769531 267.027344 C 2519.796875 257.125 2520.847656 243.308594 2520.847656 228.152344 C 2520.992188 201.242188 2517.152344 169.960938 2506.671875 150.117188 C 2504.441406 145.867188 2502.617188 144.347656 2501.191406 143.453125 C 2499.742188 142.597656 2498.125 142.046875 2494.992188 142.019531 C 2486.117188 141.492188 2467.027344 150.027344 2450.269531 162.375 C 2433.257812 174.441406 2417.683594 189.046875 2409.921875 196.847656 C 2395.441406 210.875 2374.992188 220.355469 2354.441406 229.046875 C 2333.941406 237.453125 2314.421875 243.652344 2303.414062 246.375 C 2300.066406 247.058594 2298.683594 247.671875 2294.105469 247.933594 L 2294.105469 247.941406 C 2294.085938 247.941406 2294.078125 247.941406 2294.058594 247.941406 C 2293.828125 247.960938 2293.328125 248.019531 2292.671875 248.117188 C 2291.335938 248.289062 2289.335938 248.578125 2286.882812 248.933594 C 2281.960938 249.671875 2275.152344 250.742188 2267.164062 252.039062 C 2251.164062 254.625 2230.402344 258.085938 2209.855469 261.546875 C 2172.625 267.816406 2136.144531 274.078125 2129.566406 275.210938 C 2129.269531 275.296875 2128.867188 275.414062 2128.347656 275.578125 C 2126.894531 276 2124.703125 276.691406 2121.960938 277.632812 C 2116.472656 279.507812 2108.757812 282.421875 2100.289062 286.367188 C 2083.289062 294.191406 2063.492188 306.585938 2052.007812 321.355469 C 2044.289062 331.289062 2039.992188 341.402344 2039.941406 353.796875 C 2039.941406 354.921875 2039.980469 356.125 2040.085938 357.703125 C 2040.328125 361.960938 2040.441406 366.105469 2040.441406 370.078125 C 2040.644531 408.222656 2029.078125 436.105469 2009.847656 452.789062 C 1990.703125 469.414062 1967.742188 473.222656 1949.546875 473.242188 C 1938.703125 473.242188 1929.105469 471.875 1921.757812 470.460938 C 1914.683594 469.117188 1908.816406 467.402344 1908.617188 467.355469 C 1904.402344 466.152344 1817.085938 447.421875 1776.203125 447.683594 C 1770.527344 447.671875 1765.902344 448.066406 1763.394531 448.558594 C 1751.539062 450.722656 1739.914062 458.808594 1727.703125 470.480469 C 1715.441406 481.992188 1703.75 496.269531 1688.402344 507.441406 C 1683.230469 511.203125 1676.25 513.894531 1669.105469 513.847656 C 1661.25 513.855469 1654.507812 510.855469 1649.703125 507.441406 C 1644.796875 503.980469 1641.25 500.027344 1638.152344 495.980469 C 1632.078125 487.855469 1627.777344 478.972656 1624.132812 470.355469 C 1620.066406 460.585938 1617.027344 451.191406 1615.144531 444.808594 C 1607.472656 439.894531 1593.914062 431.230469 1578.441406 421.460938 C 1554.539062 406.394531 1525.972656 388.652344 1508.394531 378.617188 C 1502.277344 375.058594 1492.703125 372.433594 1482.027344 372.460938 C 1467.75 372.453125 1451.902344 376.933594 1438.492188 387.203125 C 1425.085938 397.546875 1413.402344 413.578125 1407.328125 439.691406 C 1387.347656 528.097656 1344.460938 555.046875 1339.855469 557.242188 L 1333.597656 560.652344 L 1326.652344 559.507812 L 1326.652344 559.519531 L 1326.605469 559.507812 C 1326.558594 559.5 1326.472656 559.492188 1326.367188 559.472656 C 1326.027344 559.433594 1325.441406 559.367188 1324.644531 559.289062 C 1323.046875 559.144531 1320.566406 558.972656 1317.5 558.972656 C 1308.480469 558.941406 1294.644531 560.492188 1282.625 566.691406 C 1270.597656 573.066406 1259.710938 582.75 1252.703125 604.164062 C 1250.414062 611.355469 1249.558594 617.367188 1249.558594 622.421875 C 1249.625 631.164062 1251.902344 637.257812 1255.789062 643.097656 C 1259.703125 648.855469 1265.664062 654.132812 1272.847656 658.585938 C 1287.152344 667.585938 1305.703125 672.578125 1315.191406 674.539062 C 1320.144531 675.796875 1334.027344 675.867188 1349.078125 677.078125 C 1364.222656 678.546875 1382.066406 681.085938 1398.203125 692.757812 C 1408.492188 700.171875 1416.972656 712.039062 1420.691406 726.375 C 1435.460938 761.460938 1441.316406 792.492188 1441.316406 819.289062 C 1441.367188 858.375 1428.75 887.902344 1415.914062 907.144531 C 1404.492188 924.335938 1393.078125 933.683594 1389.664062 936.289062 C 1387.289062 938.289062 1373.472656 949.980469 1355.953125 965.742188 C 1336.722656 983.027344 1313.105469 1005.257812 1296.375 1023.855469 C 1285.269531 1035.867188 1277.191406 1047.769531 1276.652344 1050.230469 C 1271.625 1063.375 1262.953125 1073.703125 1252.933594 1083.980469 C 1242.855469 1094.132812 1231.117188 1103.816406 1219.289062 1112.835938 C 1195.808594 1130.710938 1171.210938 1146.402344 1162.210938 1153.203125 C 1161.039062 1154.007812 1158.796875 1156.652344 1156.796875 1161.328125 C 1154.796875 1165.933594 1153.132812 1172.152344 1152.039062 1178.632812 C 1149.777344 1191.671875 1149.722656 1205.222656 1149.742188 1211.066406 C 1149.480469 1211.441406 1151.183594 1219.347656 1151.289062 1229.617188 C 1151.316406 1237.875 1149.828125 1248.210938 1144.921875 1258.796875 C 1140.058594 1269.433594 1132.066406 1280.132812 1120.289062 1290.652344 C 1115.296875 1295.164062 1112.222656 1300.605469 1110.019531 1308.480469 C 1107.855469 1316.277344 1107.046875 1326.230469 1107.058594 1337.097656 C 1107.046875 1349.644531 1108.078125 1363.277344 1108.097656 1376.855469 C 1108.085938 1385.25 1107.710938 1393.683594 1106.019531 1402.222656 C 1102.25 1421.367188 1095.078125 1443.335938 1078.222656 1473.269531 C 1061.347656 1503.328125 1034.808594 1542.117188 991.152344 1598.019531 C 944.507812 1657.394531 865.75 1712.203125 798.085938 1753.671875 C 730.472656 1794.941406 674.117188 1822.019531 673.710938 1822.222656 L 669.941406 1824.039062 L 665.933594 1824.230469 C 665.875 1824.230469 665.703125 1824.242188 665.421875 1824.277344 C 664.867188 1824.347656 663.882812 1824.472656 662.578125 1824.691406 C 659.972656 1825.164062 656.058594 1826.066406 651.578125 1827.722656 C 642.539062 1831.097656 631.460938 1837.269531 622.210938 1849.164062 C 618.941406 1853.472656 618.914062 1855.222656 618.882812 1855.921875 C 618.902344 1856.578125 618.960938 1857.585938 620.652344 1860.152344 C 622.308594 1862.632812 625.664062 1866.164062 630.632812 1869.914062 C 640.558594 1877.507812 656.460938 1885.75 674.632812 1893.5 C 702.507812 1905.558594 728.941406 1926.078125 749.355469 1943.664062 C 769.644531 1961.257812 783.472656 1975.972656 783.808594 1976.328125 L 785.921875 1978.566406 L 787.308594 1981.367188 C 787.335938 1981.421875 802.828125 2012.828125 823.75 2053.597656 C 844.664062 2094.347656 871.019531 2144.441406 892.296875 2181.046875 C 916.460938 2223.019531 928.75 2280.652344 936.230469 2328.894531 C 943 2373.433594 945.007812 2409.527344 945.289062 2415 C 945.789062 2419.394531 947.828125 2438.703125 947.828125 2466.730469 C 947.757812 2513.992188 942.230469 2586.097656 912.375 2653.757812 C 899.816406 2682.117188 895.769531 2705.144531 895.75 2723.472656 C 895.75 2764.941406 916.796875 2784.828125 917.652344 2785.777344 L 918.433594 2786.453125 L 1065.117188 2950.382812 L 1199.394531 3050.671875 C 1202.632812 3052.644531 1210.460938 3057.789062 1218.941406 3066.664062 C 1229.210938 3077.441406 1240.828125 3094.578125 1243.171875 3117.882812 C 1244.308594 3128.816406 1248.921875 3136.019531 1253.953125 3141.460938 C 1256.75 3144.480469 1259.691406 3146.703125 1261.75 3148.085938 C 1268.960938 3148.664062 1283.328125 3149.914062 1299.566406 3151.941406 C 1323.019531 3155.019531 1349 3158.828125 1367.671875 3166.722656 C 1376.046875 3170.414062 1382.941406 3174.527344 1388.585938 3180.289062 C 1394.269531 3185.992188 1397.617188 3193.210938 1399.152344 3198.585938 C 1402.257812 3209.625 1401.882812 3213.402344 1406.835938 3222.222656 C 1406.921875 3222.375 1407.007812 3222.507812 1407.085938 3222.664062 C 1409.492188 3223.527344 1411.953125 3224.75 1413.816406 3226.171875 C 1418.796875 3229.808594 1421.960938 3233.730469 1425.960938 3239.269531 C 1431.191406 3246.671875 1437.605469 3257.355469 1446.941406 3274.652344 C 1457.046875 3293.296875 1467.671875 3302.710938 1477.097656 3308.058594 C 1486.539062 3313.355469 1495.355469 3314.671875 1502.308594 3314.691406 C 1508.132812 3314.703125 1512.480469 3313.683594 1513.652344 3313.347656 L 1513.691406 3313.347656 L 1513.914062 3313.257812 L 1514.125 3313.191406 C 1515.691406 3312.691406 1535.507812 3306.546875 1567.5 3306.546875 C 1601.730469 3306.527344 1650 3313.710938 1703.472656 3342.394531 C 1714.507812 3348.25 1724.75 3350.558594 1735.097656 3350.566406 C 1763.664062 3351.046875 1796.152344 3330.066406 1821.558594 3304.953125 C 1846.972656 3280.203125 1865.027344 3253.132812 1868.519531 3247.683594 C 1868.992188 3246.953125 1869.132812 3246.703125 1869.144531 3246.703125 L 1869.902344 3245.460938 L 1870.835938 3244.355469 C 1871.566406 3243.507812 1876.683594 3237.367188 1885.644531 3230.816406 C 1894.578125 3224.421875 1907.808594 3216.960938 1925.242188 3216.828125 C 1943.847656 3216.539062 1964.058594 3227.152344 1978.894531 3247.921875 L 1979.078125 3248.152344 L 1979.203125 3248.328125 C 1992.914062 3267.894531 1999.703125 3286.585938 1999.710938 3304.289062 C 1999.777344 3319.816406 1994.183594 3333.578125 1986.527344 3343.777344 C 1978.875 3354.085938 1969.472656 3361.375 1960.625 3366.816406 C 1942.882812 3377.597656 1926.703125 3381.433594 1925.519531 3381.777344 L 1916.902344 3383.875 L 1909.722656 3379.289062 C 1909.703125 3379.277344 1909.671875 3379.257812 1909.617188 3379.230469 C 1909.441406 3379.132812 1909.144531 3378.980469 1908.769531 3378.816406 C 1908.316406 3380.191406 1907.796875 3382.257812 1907.421875 3385.117188 C 1903.980469 3410.578125 1890.683594 3429.257812 1879.019531 3441.316406 C 1867.257812 3453.441406 1856.671875 3459.5 1855.558594 3460.164062 L 1852.867188 3461.722656 L 1849.789062 3462.402344 C 1849.441406 3462.460938 1699.066406 3496.25 1613.980469 3506.914062 C 1547.796875 3515.171875 1525.222656 3530.007812 1521.953125 3532.453125 C 1513.171875 3542.078125 1443.492188 3618.480469 1386.722656 3672.808594 C 1367.453125 3691.078125 1363.308594 3703.539062 1363.617188 3708.203125 C 1363.691406 3712.296875 1365.289062 3716.203125 1373.585938 3722.664062 C 1381.632812 3728.730469 1395.019531 3734.691406 1409.789062 3739.296875 C 1438.5 3748.230469 1456.171875 3763.941406 1465.402344 3778.242188 C 1474.75 3792.519531 1476.027344 3804.492188 1476.222656 3806.882812 L 1476.527344 3810.722656 L 1414.289062 4019.085938 L 1411.085938 4022.578125 C 1410.882812 4022.847656 1410.472656 4023.367188 1409.921875 4024.125 C 1408.835938 4025.652344 1407.210938 4028.144531 1405.566406 4031.507812 C 1402.289062 4038.25 1398.875 4048.203125 1398.875 4061.25 C 1398.875 4068.375 1399.882812 4076.492188 1402.664062 4085.730469 C 1407.855469 4103.078125 1409.847656 4118.144531 1409.847656 4130.894531 C 1409.914062 4160.703125 1398.796875 4177.066406 1396.558594 4179.808594 L 1395.902344 4180.664062 L 1265.492188 4316.203125 C 1265.519531 4318.085938 1266.222656 4322.953125 1272.402344 4331.855469 Z M 1389.164062 3259.683594 L 1389.171875 3259.664062 Z M 1389.164062 3259.683594 "/>
</g>
</svg>
